<mxfile host="app.diagrams.net" modified="2021-01-17T14:03:37.271Z" agent="5.0 (Macintosh; Intel Mac OS X 10_15_6) AppleWebKit/605.1.15 (KHTML, like Gecko) Version/14.0.2 Safari/605.1.15" etag="tQd2P7ErsTPtltYn061A" version="14.2.3" type="github">
  <diagram id="SxJqa6N4zY_XiI7_-FYx" name="第 1 页">
    <mxGraphModel dx="815" dy="471" grid="1" gridSize="10" guides="1" tooltips="1" connect="1" arrows="1" fold="1" page="1" pageScale="1" pageWidth="827" pageHeight="1169" math="0" shadow="0">
      <root>
        <mxCell id="0" />
        <mxCell id="1" parent="0" />
        <mxCell id="-thazCZJoOSdDLhHE3hT-4" value="" style="shape=image;verticalLabelPosition=bottom;labelBackgroundColor=#ffffff;verticalAlign=top;aspect=fixed;imageAspect=0;image=data:image/png,iVBORw0KGgoAAAANSUhEUgAAAggAAAEdCAYAAABpD5/WAAAAAXNSR0IArs4c6QAAAERlWElmTU0AKgAAAAgAAYdpAAQAAAABAAAAGgAAAAAAA6ABAAMAAAABAAEAAKACAAQAAAABAAACCKADAAQAAAABAAABHQAAAADzDNuGAABAAElEQVR4Aex9B3wcxfX/3Kn33mxJlnvvvWFjDAZTQwkmQMAQIIQQAgn/QEggJL9U0igJISEESCEQSCgBYpoxxhiMccG23Hu3Zcm2JKvr/t/v7K21d7un2zudTnfSzEdPd7c79Tuzb96892ZWCBUUAgoBhYBCQCGgEFAIKAQUAgoBhYBCQCGgEFAIKAQUAgoBhYBCQCGgEFAIKAQUAgoBhYBCQCGgEFAIKAQiBQEnKkIyBqtrxvvqu0JAIaAQUAh0PgKKFweJcUyQ6XpCMgcaSXy8J37vtufhwrdBI0CfgVygFNA3QTNAq0BNIBUUAgoBhYBCQAgjb9Unb+Mn74cqxCKjr4Lmg9aDToFUsIlAKDvCZpFRE+1s1JSDqgX0W9A+kFUYiYufg/aCBoAaQYUgPX5vfD8MUkEhoBBQCCgEhJgHEDhpMxgXYFxcnQBtBS0BLQc1gzoSEpF4M6gUxEXcBpAKNhGgdKWCGQHi8kPQZBCFqCrQj0FWoRUXSUbJ9CR+3wbi4K8GqaAQUAgoBBQCGgJcSF0CIt+s1S7J/+SXcSB+kp4G3QGqAXUk6LyZ5amgEOgwAtORAyVXSrBHQeWgZJBVGI6L1DJsAsVbRfBxjYKHTj6ieFzW4/JTBYWAQkAhEK0I3IKKU1uwGFQMKnFTKT5Hg+4GUZPAON8CtRf88UVqEDaCmNdQd0b+0rijqQ+lQTCPAQ6e60CUYB8CfRF0JWg26A2QncC0We6I1D4YJVfmTym5AJQLagDtAdWBKGh4B/ZRGogPTwKI2oldIPo1WMXHZRUUAgoBhUDEI8CV/T6vWpIXrgWR530fdD7oVyBjIA8lX8wBFYHITylQ7Aa1xxfJhxmXJmDyX/LPXSDyVMVLAYIK/hHggKsAHQJxkC4AcWC9AOLA9A5WGgQO3NUg+iZkGxIw/RjQi6BKEP0VKCCsAd0I8hbYWP79INrk9Lh8qD4GXQpSTqYAQQWFgEIgqhDQNQjtLbi4KOOq/0OvlpGHUuvwOOggSOeLNFV8AmI6I1/UNQjUCI8HPQw6BmI6XtsIIu81psFPFRQC1gh8HZc5MJ9w3+YETym3GtTffc34YSUg5CMCNQdMk2eIPArfmRcH5z9A3P1A6fgIiGV+C6QLIQn4/hyIki0FiDtBV4N+BmLeHNzXgPT4+KqCQkAhoBCIeATaExDIz7hQ+jmIC7NHQMZArSsXSOR/74C+BtL5IrUITMMJX+eLuoDAhdUi0HbQj0Dk80+ByIvJY78AUkEh0C4C9CFYAeLgm2WIyUHKCfxewzX9qy8B4SgicCLXBQSaHV4BcQDfBTKGafhRD6JAUeq+8SV8skxKxXwojOFs/OCApzpOz994X31XCCgEFAKRioAuILyNCmYZiIuxAaBvgMgLN7t/4+N0+AG+kS++BuIiyhguxo8mEBdhOl+kgLABxDQUDnT+iq8y3I//vLcURMFEBYWATwRm4w6lyc9AxsE3Bb858NaDUkDGYFdA4MCvA+0HZRgzcH+/D5+PgQaCKP2+CeLAvdz9m9eM9Lr7/qX4VEEhoBBQCEQLArqAwEXRXgNxYte1AG/h+xAQF1Z6IE9eB+Iii4sk78C4XOCRb1JYYDAKCN/RLnn8p8BAYaQWVAZSwYCAEXzD5R75lZPv9SBi8ncQVU/6hPwpvnPgURiYBQomjEAiDlZKxXwIvMOPcYFqr60g+h6MBFGTcQRUBOplIP5mPIbR2of6rxBQCCgEogoBTszlBuJKfy1oF4i8lqYA+mzp81QhvvcDnQQxrneg4MD0DOSfeiAfZyAP9w6HcYGCSTKoxPtmT/+tVCptI4CD40IQpVra/MtAeuDAex80DXQd6H8gXgsk0C+Bgc6J/kI6IqSAYkAvgbzLooScCqJWoxikgkJAIaAQiDYEOGGf71VpCgN5oC+DuGiaBDoLtA2UBUoCVYC44rcKvMfgbZblNf0ev+uBPJQCB4OVZle700P/KwGhreOvwFfawLhq/xdIlzrxVaqs4vDJiXoeqC+I9qxAAid7BmO+2hXzf8YhsS5vgGpA3oF1IVlJxd5x1W+FgEJAIRBpCFjxQvI0ruofAg0DXQ+6AfRdEIUHPQ0XSVaB6RkYVw96Gv2efp2fzMdXXsZ4PfK7EhC0bqdUeg2IA2gRSJco8fV04CAaAeJOhC+CfgoKJOiag0wk4oD1HpTsCw5qCgUUCOivQJPE/aDdIBUUAgoBhUBPQmAVGns9SDcX0DTbAKI5gDzbik+TvzIc1z7kf53Xphqu6V+58NOvW+Wnx+uRn0pA0Lp9Jj5oy98ColMgzQxW4VxcfB10FegRkC81F26ZwjZcaQENANGEwMFuDHPxYzCI5gvGpYZiOmgcyEpA4ANCQYN1tZKMcVkFhYBCQCEQlQhQ49rHXXNdg0rNwn5QGagviL+NgWmGgigQbDTc0AUEaiQ+MVzn11wQ/btOgZi3CgYEjGoYw+Ue9ZUYXA/iZPsCyJdwgFviAxAHHjUJs0CBhHJEXg8qBV0A4pZKls1BnQ16DES1Gu1sFCQoiHDivwFEiZnxWEd+8vdPQL8D0WFRBYWAQkAhEI0IUEtqpCT8TgFNBXEhRh+Bt0AMFBTeBpEP8l4CiDyUv7nYpXZ3IugYaBnIO1yNC8ybcZmOPPg8EHnu56C9IBUUAh4I9McvqqOoDaCE6S98HxEokT4P4iAbDuKEvgnEAceQDzoKqgLlgfTAAUpJ9QDoOhBVZxQ0XgQ1giigcPAyFIK4pYcmhydAE0Cs6yQQtRd8cFaDckAqKAQUAgqBaEHgFlSUPJQa2++C7jPQj/CdvJU8mbzy3yAuiPRAfrsPRBPst0BDQeSL80ArQLz+AEgPSfhC3twAIj99BnQWiJrZhaCDIKb5MkgFhYAJgW/jyknQKyBKov7CEESghHoY1Bs0EERzwVqQUUCguopxjAICBYq7QYdAlIb5AJBYPoWEIpAxjMGPxSDepwBzxP3J8ihVDwapoBBQCCgEogmBr6Cy5GlWRN5G4WANiIIDzbHegcLA56BqUCWIfJb8lN9/BkoA6YEag3IQ40wHkZ+yDMYnVYB+CIoBqeCFgJ0J0StJt/s5Fi3KBdHmv8NG64jZVFAq6DMQJ27+phRKCZZmAQoK00CMS1VXI8gYKGScASoFMf2noPdB1BZ4B0rPM0GsJ7fhUDhhuR+BKBWroBBQCCgEogmBYlR2qI8KkwdS+7obRAHAVyDPng0aBqJAwPjktRtAxkCN7CQQP5eCGJe8uR+I5mQKIutBKigEFAIKAYWAQkAhoBBQCCgEFAIKAYWAQkAhoBBQCCgEFAIKAYWAQkAhoBBQCIQGAdrIwxVYlk7hKlOVE14E6JmsU3hLVqUpBHo2AjpvDSdP79mIh7/1Om/lZ1hCZw0meoTGTZ+eG9enT1Gs0xmfWFd3KrW+XiS0tjbFNTe3Ko/RsHRv+AqJi4tpjomJa0pOdtanpaXUnDp1qnHt2kNNGzYcbUItSHTeVEEhoBDoOALcDRU3eHBu/PjxRbHx8YkJtbWnUk+dak1U/LXj4EZiDrGxzhanU+OvKSnJNY2N9Q27dx9sXrasgg7wncZf6dkZquAsLhYJU6cOT6qtbSw9dqx+bFFRxpj8/JShBQUpvTMyijKTkmJTYmIcToZQFaryiQwEWhFaWlwtp0411VRVNVQdOSL2DhmSV56WlrAmJydhLbYy73/99XXc6cGdF2GTgCMDHVULhUCHEeBiLvFLXxqZWFnZWFJVVTO6uDhzbF5e8rD8/LTe2dn5WYmJceSvMYq/dhjriMuA/LW52dXa0KDx18OHnfsbGws2Tp2asDojI3VNWlrsvn/9awP5K3dmhIy/hkKD4Bw+PC+5f//0woqKhvPGj+99wahRhRPHji3I6t8/S2RmJqG+VBiwqJDVG3mpEJkI6P3cIiorT4ktWyrF2rWHj6xde/CT1asPvdqrV9rby5ZVVhw+fJiDWWkVIrMTVa0iBwFnQUFB0qRJmfkVFTXnjB1bdOGYMUWTR48uzB04MFtkZSn+GjldFY6atPHX48frxNatleLzzw8fW7Pm8IpVqw78NyMjYdGePScOQ3PL83U6zF87JCD06iWShw4tLYuLi7/mrLP6LTj77P59R47MF04nFRMUBlg/JRQAhB4aOLw0a1Jzc5NYteqgeOednVsWL975V4fD9fzbb+/YhwgUFFRQCCgEzAgkga+WQN+6YM6cftfMndtv4JgxhSI2Ns4dkwe4Kv5qhq2nXCF/pTLeIaBf4EJMvP329h3vvbfruZYW8ffy8q27DxyQB/EFDUiwAkLMeecNyK6ubrr2oosGfePyy4f36ds3B5XgYOWgVUEh4I1Am7CwefNR8cIL67f9739bf5OWlv7PRYs28GQzNXC8IVO/eyoCMfPmFWdUVzsWzJ8/8M4rrhgxYNCgPGChFl09dUDYa7emqd+x45h46aWNu19/fdMjyclxf33zzW088t/qED6/2QbjLJgwbVrJmAEDch67556ZX/viF0dlamouJc36RbvHR6BGqVXk5qaKWbPKsgcPzjl/27ajw5KSEjbu23eCg1gJCT1+jPR4AOJnziweVlqa+9tvf3v6XddeOzY7J4eHqSr+2uNHhl8ANAEyKytFTJ/eJ3PYsLx5O3ZUjYmLc27at+8kT+ANWEgIVEBIHjeu4GJoDJ68775Z4/r1y1YD12+nqQhmBDiQXaK0NAeCQp/BJ07UnXP8eP2ugwdrduMGPXJVUAj0RASSxo3rdc755w966nvfmz1tyJACYKAEg544EDrWZk1Q6N07U5x5Zt/+dXWN5x0+fOoAXj2xvbY2MP4aiICQMmFCr4V33DHt0VtvnZybkMCkHfaB6BgOKnWUI9Aq4HktZs4sy0pIiJ0PLcIRCAkb0SglJER5z6rqB4xAEvwLrrz11olPfPOb03pBNYwMlEItYBRVAgMCLhEfHyumTu2TnpmZOH/r1uqT9fUn1506ZXo3kCGN51e7AkLS2LG9brz33hm/uuqq0XCbVc6HnjCqX8EjQGlXiDFjeidkZyeeA5XY0YMHq/la1oDVYTIj9U8hEH0IJIwYUfAlmBQeW7hwXBoceNEC7bmIvqaoGkcWAtpYGjGiKLawMPmsjRtP1O7de2I16mhrEWZHQIgbMiT3snvumfHoggWjExXfjqzu7z61aRXDhhXFpKXFzS4vP7KjoqKOmgSlouo+HaxaYo1ADHxx5t9555QnFi6cgDfEKq2BNUzqascQaBWDBhU6sQg7Y8uWioOHDtVwEeZ3sPkTEBwDB+ZMuOWW8U/fcsvkTCUcdKyLVGp/CLSKkSN7xbW0tM6AJ+5HOGxrr78U6r5CIJoR6Ncva8R11415FmaFAodDycPR3JeRX/dWAb8WHKQlZpaXV6ysqqrbgTq3q6pqV0DAoTa58+b1f+r73z9zWJy+9TbyUVA1jGoEXALmrJRt2ypH7Np14jWezBjVzVGVVwj4QCA7W6TPmTPojz/84VkTEhPJitvl1T5yUZcVAoEg4II5t1fCgQMnx+3cWf3fmpp6bjH3Gdo78jimqCj9q9/4xuQZSUmUDtTg9YmiuhFCBDTHmjvvnDpxyJCcO5GxEk1DiK7KKmIQcPbqlXf97bdPOjc9HZZbZU2LmI7p3hVxiZgYp7jjjinDRozIvhdtTWivvT41CDk5aYNvv33C4xdeODxFmRbag1DdCz0CLpGdnYZsW0euWHFoUU1NA7boqKAQ6D4IwKu89JZbJvxpwYIxGYq/dp9+jY6WuER6erJISHAO//DDPUtrahp3+aq3Lw1CzIgRObdedRXOTfbvx+Arb3VdIdABBFrE5ZePSJ8woeguZKK0CB1AUiWNOASc/ftn33j11aNKlWY24vqmh1SoRVx00dCk2bPLyF99ahEsBYTExMTiSy4ZfGV+PoRbpfrqIQMm0prpEmlpyeKKK4ZdlJmZPCLSaqfqoxAIFoHUVJH7hS8MvrZPHx5P79eRPNhiVDqFQDsIuHAGTby48srhZ+flJU7yFdFSQCgpSbl4/vxBOMZLDV5fwKnr4UCgRZx3Xv+UYcNyrkZpwb43JBwVVWUoBGwjAPPZeXjHQplafNmGTEXsFARaxJw5/RPgFH4dsreUBawuxs2YUfqFAQNykUZtu+mUflGZ2kSA721IxyAuuwAJ6JSggkIg2hFwTp5c8oWRIwvRDsVfo70zo7v+mi/CnDl956EdVGeZgpWAUDJlSvFY7ZXNpvjqgkIg7Ajg5WADEhNjx4S9YFWgQiD0CORNntx7SmxsfOhzVjkqBAJGoBUvdirpnZWVMNkqqUlAyMyMHz1mTAGcD5R5wQowdS3cCLRi325hDN4eOj3cJavyFAKhRgCC7nCMZzh/q23jocZW5RcMAq0Cx3w7hg7Nm2mV2iQg4A2No7W3NCr1lxVg6lq4EWgVBQVpYujQ7AkoWfkhhBt+VV5IESguTh+F02kxjhV/DSmwKrMgEXAJOIHjhMWc8cjAJA+YLpSUZA7IyuLBHSooBCIDAZq7+vTJ7o/axEZGjVQtFALBIVBSkjEgLy8ZiZUGITgEVarQIxAD/ppVhnw5MD2CSUDIzU0qjIlRx356oKR+dDECTmgRkvNQCeWo2MU9oYrvGAL5+clFfMW5EhA6hqNKHVoEILRyVwLPNfAIJgEhOTkeTNh02SOR+qEQCC8CPBMhHm+6E3jVuAoKgehFIDk5Dq9zVvw1enuwe9Y8IyORZgPTAsx7pDpiYx3q1LruOQaiulVw7qJaS9m+oroXVeVjYshfvdmuwkUh0LUIJCTEclCa+KvVSFXGsa7tK1W6BQIOBFy2Gq8WsdUlhUBkIuByORR/jcyu6cG14gucrPmrN8N1ISj32h48VCK16U6nHMBqF0OkdpCql00EyF+VjGATLBUtTAi4F2Am/uotIIjWVrX/Jkx9oooJAAEICIxtGq8BZKGiKgS6HIHWVrUA6/JOUBUwIeCLv5oYLgawEm9N8KkLXY2ALwm3q+ulylcIBIIAuCv4q2KxgWCm4nY+AtDPcgXmX4OgTAyd3xmqhMARcDrl4DUJtIHnpFIoBLoOAcVfuw57VbJvBNwmXBN/NR080zNUYN6CUmdI9HoZnZG3d0frZfF6OMrzLr/zfysNQudjrErofASUgNARjHU+1z15XEeQ6What4lBB/h0dlYCQjdG3yFaWlyivr5ZNDdrzYyPd4qkJApOxCYUTWcZraKurkXQWBMf7xAJCdrBU42NepmmfjjdIf6+sN5sQ1ycU7BTGxtZVjPKcqGsGJGcbBIC/WUZFfd92ciiovKqkgoBNwJ4TJWTYpCjobq6SfK7tLQ4yVeDzEYls0aAk5Jp8jAJCNiG0213MRw9Wi+2b68QW7ceE5WVdXKCLShIESNHFoiysmwICh09QdIhWMaWLUdAx0RDQ7Po3Tsd+ReJXr2SxdKle2TXnHFGHznBW/dTe1edYvPmw2LHjioxfnwRtqbEic8+24s2VeHBaRFFRWli0qTeODYzE/kHL4S0V4OuuecSbg2CaQB3TX1UqQqB4BDQBITg0vbsVA7x5pubxcaNFeLyy4eJ4cP5umz1QsFQjQlfCzALAaE7bsNxQCCoF7/97TLxj3+sg/agFSvtOOzYcElBoV+/LPHd784UF144VMSaELHbBQ5x/HijeOSR5eKpp1bJFX1aWoL8HD++l7jttoli4cKXBQ78EStX3owJnGdSBKqxiBFPP71GPPbYCvGzn80VBw/WiBdfLOceVtHU1CoOHaoREyf2Fj//+VyBd85jUu0+sp7bB6E7ST12B5aK140Q6Bkm3M7oMKd47rn14uWXN/HFQhAQeqEQJSCECmnbJobuaSOLEc8/v0789KdLMbDyxF13zZCDjGaAd97ZKifcb37zf2L06EIR/JssnZis14uf/OQDUVqaIb71relylc9J/E9/Winuu+89cexYncjPT5Gai+A7VjORPPPMWpGaGod8Z6Mt2aKiok48+eRK8frrW8U997wjXn31SyI9ne+cD1QICb5mnZnS1wDuzDJV3gqBUCOg7RLrHs9kqLHxlx/NqgxOrBZUCC0CtjUImFC6z7LTjSHPfqJZYezYIkyeM8QVV4zDnWaQQ5x5Zl+xdu1h8cYbW8X77++EgMB3AgUOQX19k/jjHz/Dql1AGzFD3HTTNHcZTjFlSrGYP/9v4tSpJqz24Y4vz/zB7SCC/nDs2FEpFi26FpqCvsiFkrRTjBqVJ1avPgRTxm5oKfaJOXMGuO8FUVCEJVEmhgjrEFWdoBDonguwoKDoYCJNmdjUpAlbeEWAm68q4SsYYH0twEyimKYC614gU9V+331nYIV/JSbqAaK6uhbmgDpRVcXPFqzA+SIrIXbvPhEMtkjjFAcOnBAbNhwReOmFuOCCQbjWBOLE3QT/gyxxww1j8D10YcqUEggHpciwEaSV06dPjpg6tViaTj799ACum7o3dBUIc05KQAgz4Kq4TkGAPl50XlYheAQ4mVVVNYjPPz8s3ntvh3j33e1Y5B0SR47UBZ9pD09pW4PQXc8KT0tLwqBqEkuW7BF7954QNTWNcreB0xkjBxrHB3cfBBcc0v5PDQH9GXJyvN/33iK1CJriIDTcYeRIajooABjtcA4xYECWbALb2J2CLwm3O7VRtaX7I9BKxydp9lPuNMH2dnV1A3yxVogXXlgPvlsrncEzMhLEpZcOFd/4xhS8Gj4FWYeGzwZbx2hL54u/mlzyuqMTTWurQ3z00W447y2VKngOpqSkONiy2I0OOPtVy/4MXvPvkAIHM6HzY1yc924Il8jKSpTmhVCtHrKzrd98nJqaINtSW0sNRvd5SJSTouxW9S/KESB/JQ8IntdEOQAhqP5LL22ExrZazJpVJkpKsiAkVLv9v5bCydwp7r//TPDaEBTUg7Jwj0eTytkkIGg2su4zsXCVffRotbjzzjfFpk0VYsGCEeKqq0ZjK2C6+3yCWPGb3yzF7oNPOjQc3BKYVO/zTAJvPwP93IUOFWJIjHdmWAbu0GDgg9KdAvDlkqt7Nao7dZBqi00EXC3aIoHDuTvxWZvN71A0TeuyYsV+7Ea7TJx11kDkpl2bNKlQXHPNf+AHtlLcfPN4bC/PwD0fTLJDdeieid3zlYm/mgSE7qdBcIpPPtkn1qw5BCe+Amx1PA9+AlRB6ar5OLnt0brbtcGn3WvvYXaJzMxEuTvhxIkGeRBTcrJxB4ET/g3HZTnmlYPdMjxrePhwrecF96+KilPyW14ezRzGvC2jR81FtwBmGsBR0wBVUYUAENA0CO3xEgWTPwRmzy5zCwd0NGdwYIv6EDFoUI40F69ZcxACAk2tSkCQ8Pj959J31pkmDBPDhXTbzUavA84r2mQ6cGCOWzjgwNKaeehQlfjwwz0WEDrgzNgE9VWdOHGCjoAm7AxpWuGImCbNCFR98SAjbbHLNE4IDC1y+6GWwJiPQ56CyDIqKxsM+fn/umrVAVFbWy/z1+rmgC2uSZSXH5Hqy6FD6XjZfbrSl43MP1IqhkIgkhDoRoeThB1WjZ9NntwbJRunLp4iGy/I3xm2bz+O/0Y+Ky+rf+0g4EuDYERZJu9+JgaXPGGQ2wv37Tsh7VXa8cQtYtcu7YyCEyc40Qp5mBInc01978S2xx3i179eiu2EW3HXBJVMo/1z4XyDNDFtWikm7UY40KyFxqBGTvoHDpxC+k3wtN0Btb/3oHVC4j0oTRwvvPA5svK+byjC6yvNJa+/vgnCTz38H5rdDpg7xKefHkRdUuVBSd1JgvY1gL1gUT8VAhGNAByhaYFUoQMIFBamIrUZxOxsHj4n5A41+UX9s40A/fHgt2Ga5EwmBoxeXfduO/PIjtiCA4t64RCkAkzGR+SEP21aH5xJ0IjzAnaJPXtOwj9hqjxciEchv/baBjFzZokoLMzBIUo7xKOPfgLb1mjxxS+ORjN9QxOLIxi/9rWJYv36w/I8BKr6hw7NEzQFLFu2GyqwQeL3v18pfRTa8HKKVasOiYceWo7tib3FV786CbfMA78tfts3nunw2GOforyjcNTJwENRL559dg062YETG8dAmqYGofuo2NwCgn0Jqg0q9U0hEDEIaEfZ23vGI6bSEVYR/SwYc7U09mA245pjqiueCJC/xsbGOFpaPOc4k4CA1XP3mVUkBi5M9mk4RfFsCAcf4TzvbeKtt7bjyOM40b9/Fq7PlRPs++/vku9P4EmIjz46H2lyYdPKFXl5KVBfmQQrT3Tlr2Yxb94A8aMfzcWRoGshjBySxC2PN988ER63JeLhhz+R6n/3ZIdULlFcnAGHyQz3zgeLbH1cYlm5uak41nmlPC4atk25M+Omm8aLu++egXK6FxNyP/R2OsIHYuqyQqDrEcBzqjQIHeyGqirNz8ozG9dpzUFWlvUOL8/46pcRAc5J0GyZ+KtJQNBUYGYvfGNm0fe9VZxzzgAxZkwBTlSslCca0omPdvqEhDg0xyX+8IcLYL+vkFsR6cwoRIO49toxOPu7XPCdCnYCX8503nlDUFZfqP45iDXzRnZ2OrZX7pbvS0hNjTcIHC3S2ebss/tj285JxLe/QCaXuf76CSirTNrctJc1pco2aQJI9xIQlA+CnRGo4kQ6AuCv6qCkoDtJ4488LZYLIo0nkM854OfVKLZtq5LXtLNguhf/Cxoymwk1EwPs8F5acpOAgEmtm+7TbZHvQaCvgDYRcwBRWaIpTAoKUnHABrfGMGhqlvr6Bnm64g038GhmfwPOCfv/brF8+T74IpTAZNAPwoaWprGxGQc07ZaDetiwPKhyKJSwDAeutUAwOQrtQ3/5G/9sBW0ZQufIdHlSo5ZIb4+/utoqIqIiqV0MEdUdqjJBIoDnVjkhBImdnoy8dN26/TCj5mOBJyAcuOBovgtvuq2QzuKjRqk3PepY2f3kotKWDwIOFXKbGCitdbeJhu3xtLG0Ach7+rYZXo2R5yYMH56PVX5f/PaVjnEZHHj18kHx4INLxIQJvcQPfuCCwJEuhYLt249JvwQebsRXlWoCipbmwIHjcvfDZZcNxQU39LzlI+gOTvqn1kfGevtIGOWX3WYZkwosypulqt/DEMDK1/9D3sMwsdvc5maNB9Ps+3//94Hc2pifnyzfavvEE5/Ks1+uu24MnNIzkaU/fm231J4RjwswWwKCknD1AdEq3+745z9fLLRTC/0JS604gGmUWLHiAE5t3IPXO/9X9O2bLc8+2LpVM10sXDgW74IYbBi8LuzXTYcfwcXwdeC5Bf55B50QExJi0Jn2zRF6i6L3kyYvWXslIERvJ6qaAwEI9srEENRIcMkj7PnenO98Zzr8yHZg99cy8FcXtqM3SDPw1VePlEctd6fX3AcFVRCJyF/x2gETfzWZGHhWeNvqNIiSuk0Sl3zxktYcf8IBY1FjkApHxPPkO8v5NkWeE56QEIuXNw0WM2b0kTsZkpKMxzC7REpKvCR72ppW+brqCy8cDPVaNsr0L1Bo9Y/+/8oHIfr7ULUAT6w8atkOP1FoeSLgwhtyx4uLLhoizjijFL5X/bE7bB/8rypltP79s+VOMB6hb4+Xeube03/ZNjFo23B6Olx6+wN9kFulJuCmmyaKG28cg4OLNDVXUhLlMBJ/e+fp/Vsv2+qzRVx55XD5UpL4eAoaPUeNpqvAvHbhWIGkrikEIhYBamgjtnIRXTGXmDSpBDWkKlHje3Pm9Mcr7em7pQcr/qrfU5/tIUD+iu2j/jUI6iCP9mC0c48TfjPBxrZDHW/tmp3U/uLExcViSyRjBSJY+Ms18u9TBYZ9uk7vfbqRX3NVQ4VAGwItLZoTeNsV9c0+At4Lou7ve2Ufm47F9GXCNZkYUAxeJtKzJp+OQesrdWdh2Fn5+mpHZFynhIthqUtckVEpVQuFQIAIQIGgbLgBYqaidzYC2pZRKw2CieHCB0GpwDq7P1T+ASOg2cjMTjQBZ6QSKAS6EIGWFn2XWBdWQhWtEPBCgPwVSm+TPGC6wAGsFAhe6KmfXY6ALyeaLq+YqoBCIAAElAYhALBU1LAhoO1isCEgaOd49Ew1dth6QxUUMAJ0n7HapxtwRiqBQqALEVA+CF0IviraJwK+nBRNGgR1kIdPDNWNLkTAbWLQTkPownqoohUCHUFAHbXcEfRU2s5CwLaJQTsoqbOqofJVCASHAFVgykkxOOxUqshBQL3NMXL6QtWkDQGNv5q3OZo0CNo+XWViaINOfYsEBLRzEMwDOBLqpuqgELCLgOaDYDe2iqcQCA8CmonBhg+COgchPB2iSgkMAV8qsMByUbEVAl2LgDqptmvxV6VbI6DxV/MCzKRBULsYrAFUV7sWAV8SbtfWSpWuEAgMAZjJ1DkIgUGmYocBAZoYHA6XSR6wOCgJ7x/uYaf0hQF/VUSHENBe1mR1kEeHsu2kxHgnR/6AAf2yIJUrW10nYdxetjt27K07cKByb3txuuoefRDgCN5VxatyFQKWCPhagJkEBLUNxxI/dbGLEaAKDMEk4XZxtSyL7907//wrr5x1dlxcHA4dU+eOWYLUSRddrljHK68s2Q4B4f5OKqJD2cIHASfVdigLlVghEHIEfJkYLAQEHgUa8vJVhgqBDiGgSbhmG1mHMu2kxCUlRZMWLjzvqthYPl7qYeokmH1kGy927dq3ctGiTyNSQMA5tTxs2Ufd1WWFQNcg4N4lZtpGbhIQ1DacrukgVWr7CGgSbnRoEPBSqebExAS8XEoJCO33amfcjccr1uObOiPn0OTJlzVRQCAvVoJCaDBVuXQUAW0B5jBpaC0EBKVB6CjYKn3oEaDuAGQawKEvKTQ5apMAJwA1CYQGUbu5uHBeRuRijqqpt93Y7UoVL0wI0MfLATLzVxPDpXgQwc9XmABTxUQaAtoAjg4TQ6Rhp+oTOQhAOlC7GCKnO1RN3Aj4MuGaBARNwo1cCVz1aM9EgAMYq3HTeO2ZaKhWRysC5K9qBWan90zmcDuJVJwgEaAPgtU2RxPDVQM4UIQ5kHUKNK2KbxcBbQArDYJdvFS8yESgtVVtc7TTM8eO1YuGBuy4VyEsCHABZtfEoPbp2u4Shzh5skEcOXJK1NU1I5WSem1DF2BEt5OiAjhA3FT0yEJAMzFEVp0isTYvvLAOu1GOo2oxIPXYd3Yf+TLhWjgpUgXW2dWJ/vyJ0erVh8SGDYfhdeQS8fExYtasvqJXr1Q0LhoB5EMYufXWbGRmJ5roH0k9qQUcYzqz75nnQ2CVphZgfoe8Q/z1r5+Lvn0zRXFxNgBrFmlpcX5TqQjBI0ANrdNpNuFaCAjhcqLRGQUbFbkTky/IsZ9ZvPrqJumSXFqaK157rRyahFpxxx3TkCS6VGONja0CB2RByHGKmBhjv/hqffivuyVcLidUiFIEmppaRHV1vax9RkYixprJwhmlLbNfbU2DEH38zn4LQxOTCy5qEBobt0NLe0oMHZovxo0rop08NAWoXDwQ8KVBsHhCdRtZ504U9fXNYBaNUM1H8JZlDwi9f7jE4MHZ4owz+ojhwwsh7WaJd97ZgUidi5t3LTr+2yGWLt0t/v73tWLv3hMRW39tm6Mr2sDtePd0mxxioHHbIh5//N/iD3/4tygv34WW9Tx5DwsLyAih7lQ+Fu1RqMsLR34usWzZXrFv30mxfv0R8eMfLxGVlXXudoaj/NCVQW1zc7NLUuhyDW1O1CBgcWiSB3xoEEJbuHduBOvllzeKw4drRGZmoliwYCQON4kmZuGQws22bVVi8+ZKkZ6eJA4erMaTT+k22iRcp/jzn1eJV17ZDCHhUlFWlos20J8ikoK2T9flUk6KkdQr9uviEE1NLvHYY/8R//zne/KcgiNHjotf//qbPNuiRwUKCKHcxcC8qqubLM9+4KqQWsHERN2OHz28iQ6KQ4fmiq99bYo4caJGTJ36JASFQzDj9sd4iSYNLf3U6sWbb27FPJEgzj13AMZ8JK5zrJ0UTQKCJuF25kByit27j4l7731HOvelpcWLUaMKxdixvdDxIRetO4n5OMXWrRXimWfWwLTwJZGfnyGOHatBe/Z3Unmdm21DQ7M4daopoiXcnumDQEbCGdT4PPIZMV7vyDOjC+VkuPpMzbJ0BsbvxrLxM6gQI3bs2Cn+979PwPRLRU1NHRYIH4q77/6S6N07DzlGE8MPCoDTiUJrYnDguW0UTz+9Gh7/zRASThcjv+DlZiI7O1GUlmaKAQNyIfyneUaI4F80dY4aVYAaugTNUXl5yViE1eC3PjYjuPIeVXPKxeNtt70uBg7MEXPn9oPQxmnXq7M80oT/h6ZBMIvrJgEBLxMJqYRrbqpTag927TohZs4slWqkf/1rgxgzpje3WXRhYOHGCujMUb+u/9aqGBfnxKBNEYcO1YBqpUahpqZRbN9+TPTvn4VI3gNAZ8A6g2e+jKN/6vGN5Xnf08pu+2+My6uBxtdy4kpDptY+tIs+/xvL1Ouvl6t/6m3xmUnAN1hF1FOf0QJOH30JnNL2umvXUaygqqH+i4EDbI7o0ycPv2vFnj3HIJimi8LCTDQtcLybm1vEli0H5GpmyJAicfToSUziBzF51wq8ZAp5Z2EcF+I7IQ88f0+8neLf/16KMk6I//f/roLa+Kh4+OGXIDB8LG688RJE7TkCAsZxCJ0UuTptFA8++D7GRIMoKcmQztI69vQtot9Henq8OPPMvliNT4Q5ND8E/amX0Hmf1MbSp4uhvr5J1NY2SW1z55XYeTnTv6uysl4cP15vEuI6r9TAciZ/tWVi4D5db0k0sKLai+3AQK6DmnGDyMpKArOYAQbxCpjHRvHNb04FU0pBYjvMSJ9s2ytLv2dnheWQ2xT37q2WDxpXq4WFKVjdpIJhNooDB2pR3wQpxWr1axVDhuSJL31pJOz3e1DvZPHFL46Q6rxdu6rAWLM92sHBvnVrpRwcQ4ZkysFC8wTzTk6Ow4OdLstijbllcufOE3JlkJwcD+k/XRQVeeNCLuMS+/dXo241eHgawOid8gEqLk4TublJHuUzXwoPhw+fgvbmBMptgEknFhNOmigrywpAMHNgkDfIfHJyEmU5e/ZUS8m+qalZpKQkoC2+ytdqEex/CjFoIiWQHhCc6NtK8a9/vSs++GANtFMnMU4SMa6KxJVXno3+rhV//ONr4gtfmCmuvfZ84BGoH48DedSJn/3sGbwvwim+852r8EwuFp98shH9WwNNUosYNKhYXH75bHHeeVPd5j87z6VV1zhEVdVx8fzzizFRpYgLL5yGMVsBP4RXxXPPvSuuumoe2hZ5KyqrloTimqZBYE6hG8qcgPh8UADIz087bW7g1mvyo0WLtonf//5TLGIaxBNPXCKSkry1UqFomZ082GZjuzmmSPr1Nl5NDcKqVQehcaIfQiV4S5wYNozCTVsc/DAEPQ/vPPUoxnR6XKt7+jV+esfjNT1/frcK3mmk6l7yWPumBT0Pvc7G+c5f+VZ1snON9bThg9C5JgYnNAa7xNq1h8U55/SDumWQdPKjgPDuuzvALMagJe3bv/kw7N59HExMB8934/nQUK3G1b7v4MDKpg6mgo1gxrulRiApKU5O8pdfPhxetE2w0a8W8+b1h0DA+nG144JdL1Z8/esTwfwa5OBNSIiDmaSAkxiCZ91oT/v1rz+Udb7vvjPA+DcAhz1SQk5MjBMTJ/YSt98+We4koLrws88OioqKWuQbLyZN6i1uvXUiBIUMWS4HLfNbsmSXeOONLXD2qpDqRTQVDDhRevp+4QtDxejRmnqOtWGaTZuOib/9bQ0mgf3SMZRx+/XLhP/HKHlfRvP7zwlHswPiL38hHgOgtsyRzo3btlVKYYeqwIkTe6MfR0Kd5ikk+c3aTwT2Jf7a60g/OUTLbQfGXKv4059eEb/85fNSKJg8eTi2eSVByNyPSf2vcnX/n/98CCG1FI3iCj9wAYEryzfe+Bhjp0m+VGrTpj1gwGVYYZbJcnjv0083iZycDGj6/D+XvtGNhRC9GtuBd4qzzhqP9pRA4M0D4+8jPv64HLxgE+zLzD/QNvgusYvuUIon82por/yWllBqENpK4oR6+eXDRN++NNm08R/yyfHjC8WXv/yy+M9/NokHHjgheZs20bWl9/zGCSqQwEnLX6CgWC8XF+RfqanxWBSlSD566NApydN69Up282oX5ob+csG4YoXGk7/61QlSQ2JsW1uJ2nk0XADl5CRJswoXezRJcL7Izk7CPJAuBV36bOzefRL1qJWCFO/17ZtuoSlzQHPRAkG9BgL6KTyTLRCsYuUikVvZKVh7Yqgt2vbsOSEXecSd/LCsLJMr87aq+vnGxTk10uQBxcWpcs6g8zi1DxQw2D5e13YA2cHdT4Hu2+CtnLtM/DWsJoamplZMKJ/zCRFXXDEcgyMRK6LhMDlsEv/4xzpx6aUj0IkE03fDqW765S+Xug8mar/xbPRPfjIX2gDfZxPQYZIT509+slQOpHHjeklnEnrObtt2DIM4TTz77Fo5ML70pXEoUFeHalI7B5gWWuWErn031t8hByKdVPiAsIM///wwHtIcrOAzxPLle8SvfrVcDjhqBdauPSRtVb17Z0CI2C0eemiZfJjuu282smbZDrF48U6s+t5GfnVi2rRSDPAsqUrcsOEIsFkm1qw5BBXueVBHZyK+S6ohf/GLpXJv8bRpJRA6iqUqcvv2KvGb33yEFV014tkJTqihq2Q+R4+ewqQVL00rVG1yQK9bd0j83/99AIn/BOpxrlRttteXdkrU47AvIeCaBrB+v/t8xsBMtQMrvpfxfMSJ73//OjF//jTJSOm78/OfPyNeemmpbG58fHzQzSaDSU5OkOaKVau2QIC9A8LdIKlZOnDguPjudx9HP7+Flf4rGGOjwJCCKYrCTjOer3fkM7BgwRyM83g5Lqid+N73npSahcmTR7sF62DKiJg0w1GToaDNoN2gIyCdWeCrFkLtpKjny08KfVqRbQICJ7Kzzuonn9Vjx+qkFoE8xHfQHLCpErcTuLLPzU30E9UB3nAUi7BNWNAcgXa0WWofJ08uFhdcMATjbBVMZicx5mZCeKSfhEsumOjUR57J+aKggDzcV3BKvsmFy/z5A8EPcyRP37z5mNTE0gfj4osH494Q8dFHuyAobcQzVgUBoFlO4JdcMkScf/5gjE09f4fUGr/11lbE34PdXSchaLRKntmvX5Y015x1Vn8P/sa5bfHiHXD23gTH9WNyAqdGnPx55Mg8Obnrubf3SQHm6adXSZ58551TMD/sE++9t1MuXMkDKXDQ0XHu3AHgCaFjhxp/talBoBQT+uBEpxwVb7+9Q0qCZ5/dH0U0itmz+2KyzJKq+o0bD0lfBIvnyl0dh5QI2WF0yvEXuOqkulR7IKwa5cTArMQkuRwPVysm3enikkuGY6KnU9VJTM4fYDDxeRcYHKdHj/zd9s+Yr/F7WwxKfjQl0F+Bhyv96EdzsdIvRFsEmP06mFlexYrxMzFlSrH46U/nYRWXK+/94x9rxC23vCZefLFcfPvb0yXzpiRJYWbz5gpx//2zxU03TYTQkQAGLIDvcXHnna/LQUqthCZUOLFS2yMFMB488vOfzxMTJhRJhnzoUB0m8g9gC97WVlk/37g/meGjj/bCrDIcAsE56E9Kui704S5x882vSQGC96gh8qcRkpnZ+McBbGUjs5E0yqLEQJO1Flqt42BoUyA0z3ZPni4wviJxzz1Xi9df/1i2iZgEGzSNjPZ8XH75LGjyxiMrbVIoLi7AuLtA7jhYsmQNVi8nMMaowWqbeOyVGwNtxDYwuFUYI/nQGk5EMj63TphHZkAoeQFniXwk/RJ69aL62DSf2ismMmJxZvsZqBy0EvQZaAdoD6gCJMHTTAzWfAJxOhS0VaX3pOGAyVKbDGlS1My47fWjU6xcuR9mXzbD3wBzQVNZKL7ylQmI6ytPhzSFPvjgYmistkoNZ58+GdLM+uSTnAhrTmshv/71SRAQ0pGXtuonGHRO1EJ7mDmlKeUvf1kjF0MULLglksLGkSM10udtxYp9chHDBSr9anr1Sgc/rhYvvLBBrFixHzy3ABpRTetZU9MMwXgFaKUoK8uQpg3myUXRW29tx/O3FcLMGeL668e6BWcnzCF7MX+8g/nkhJgxo1Q6htKE/OKLGyC8ZEuBwd2Qdj6It0tqmDlPUMtCTXN2drJcvFLA+8c/1kuB4eGHY8XZZw9AfF+4t1OM5S0H6+g9eIRp1nPwGASsZEMf6KhULkHm5MHVMxlCbm4apLsh4he/WCaBGT26PWdFl1TnP/TQPPfE334tyQTb92uIkR1AgePMM8tgzx1zWtU0dGgeJtgz5IBgKR1jxkzPrV6tYIxDIAj0QY5UqTqk6SIjQxt81KaMHdvbfc8J++8AKVhwCyUPmElIyID24SCkyr1STXjrrROkL4c2SBywG+eDsU/AhL9dChV33TUVarFkucWGar0LLhhkKNslfRBuv30SpO3PIWnbU/HqOHBlQgl30KC2bZGU0M85ZwNMEGskbnPnDkZbQhUc6Bs8PUL0Aw0JVa6dkQ8OdmEHBx2ojmeYMGEwhANqCfTVXKMoKysWkycPg5ZmiYzTkX8UKum7MmvWaGTDiZvwMjThjI9SjC0y2ONQx1ZCQKDjbWDMyIVjK158cYn0objmmrPBsIuQh1bOoEH98cyNBU+ggLpC3HDDxbgXGgHh1Kl6VnY+KJyB6jrOZnPcdACfn4MoKFBg2APaB8zBYfEtxIF9Sc2dy0WWrhVAfkNV+rPPfiYnm4ULx0Cbqq3QfRdPk2st+AwVIP4DJ872BYkYLII2gMphSiqBiewcMWJEnjQpvPXWNrk4oymACw9Nba+XqY9F/Xf7n/SpYvjwwz2C7bz//jkQLpKkuv/mm1+WZ9RQSLnyyhEQaCZiwk2UwsmNN/4HC5vdEMp3yZ0efAZoBn/44eVIn4rF3Fmy3twqWl3dDIG2XNx11yIs5D6Qc0a/ftlycfT4459Kze1NN42D1m8O5p0kKZCwPt/5zluIwz7xL3BxnqD5mp8vvbQRC8NpUrvBkyS5oPvVr5YKCla//vVymP7KQqZFIF9HmaYKmgSEzlGB0f5UCwGgXA5U2qg12ykHgUN22h//+JnbWXGaW2q0HiCUkocM4aRkNzAf67xY9rp1h2VGEyb0wgREZqxPlM2YhHMxOIrB5DbaLcxnPKqOCD9t9Boj1OrEwUBJkRLv+PHc6kkmyXut0uZFPwRqS/iwc+VFyZKDbezYQjBwqt3IcBmYphnXi2R+9Avgg15amigPGmEMtlGLp+PRAjMEvdWzpeDGOHbDoEHZmER04UDPz4HJq1gKCBs3HkVWoeOExA6e/GzsOaC77NazC+K5KitPcjkcZHDJCZWJCws5z3mHGPQXx1DHA8ckV1PcseD5jLik+SEjIwUMtkqaIfwzN+/6ODGmq8DklshxX1KSB8a7AZH05yse7SiSpgfNWfEcOd496+Gdp73f2OVRhpi/tRc7pLE4W+qBDxtpHmg3aAXo383NzUnEPdSBPOGxxz6Vdm8NQ9rQm6RzNHkB/RNuu20SBELOAe2V3wJtUhk0PpR3/IfcXMpEvp9ztBd8fZMcAzfdNBar676IzzHgwIJsLHbSVEizJE0V5unJf/l6DH1uo78ZFz29erH+LdC65WKl3U8KCMToG9+YAmGX7iKtMOXmw/zSVwoIW7cewzXNHPzPf66Xmog77hiJBRzXItqYzcmJlYvI555bJzXh7723A35c+Xhe6Qi6XS7m6C+mYdeMBV0MFnlDpPDBecZO+xiHbeEYGTNG085o63oXTBopOKl3stR6UPDYu/c42kAe7Bt/3LQdMDac3pEtBAToD0I+gKk23SknKjrbcZJfuXIf6sKBqoFBxw860r377nY4zo3BdX3i864yf7c3wL3jtxe3bSuNZvvyTut0T4Le1wP/TUjZ8bTbG+vPayRiQmHAeI/Y8IHWukNrx/79J2Xh9I3gfc/AQZQgdzPoji2lpS0YwDyBTEBbwwfDiIdLriC5XTPQQBVdTAyHj3HV53JrbATK5JaeFlsPhZ2yARGxYIEnQNvspOmqOLGxMZwo7HFYUyV54pqGKfLBXWN/aZH11ZIpaRAXqEGIlcZXz3Lo0Mx7DLQBBx5iYZP9TGzcuFvmw10ML7+8zJCNA46tp9inbmfFzdBuUZOhCxCGqAF+hSBJlUu4xwg7q7dXVU/hNw9H2Q2imaGZC7BQa2jJPxjIG2iz18cMu428o6BAe765K2D27ERMZHyMPPub6bXgkj5bhYVU9dsJzMfX+KDz4ClpDuWYpQahbQHEdJpj5S9/+RFAsVOW/zjDhuW5tdP6/NF6mieNGFEA4cC4qGq7V1vbKDNvbGyEc+4BybeoVdbapmPlkj409OOiqZzxvvIVmqmPQ5CuFfQP4MJJm7v0NK3AvA80J0txPbBw7rn98XxwWOnPRLP0T+PONmp46A9GIcc3/vbL0+YgWwJCkPygnbrQUenvf18nV77cz/qjHy1BITqAkvHL7XO89txz66GGp7OidYZcSS9btk+qqNzPhXVEXCXzmTatt5TsrCORGWsjU9vvbY7FFX6ogiYMmHPThAcKEOZ7nlfa6uupjmuLRZ6uCxVa21zSb4MxrL1pKYS0pbf7TZukzBWOjdWuaf2rMQG7ebYXj9gBp0TEWQRaDWobQO0l7IJ7eXmZ96HYa4Mrmv4qbKaASpPzizfGFGqr5P1Q/KMwApW8qRxuW62r07bPpqRo9bFfHnfaNOCZf0eOvXPPnQihNR39Z5wFKJwWylURfS4oQEyePMrGM+C/FtCs7USsO/3HDGmMYuQ2GUQwD4JYB6oePwOtAm0FncJpoBdpAj9+hSgwPz5399wzU65e9QWetv++Tu48evbZNVik7cZEdbY06fp/fIx9FWxFtd0FfOMttaTc2u5Zrgv1Tcf1RLdgE2w5bekyMzlxkKG11Z/8kEG75/k86fe0PqHQ2iB3kJG/Wju3u6TjOvOjTxnbwwUY+V1OTjK0YHG8ZQhtiya9Xww32/1K50pvvDhP6Qs67q4w84d2s/R5k3MPyDQTmGa/lhaegxBK3hsDNdIhrCZ2YQWbLKZPpxRpDnTQo0PGBx/swarDl7MiTw5rgpPeB1BfEpz2A+1azz9/ORiuN9Bt6fQOpeBiFSoqtNW31b3wX3NAhahJTjwYxSrQHMH3W1DVpmkknG7VrcDed01KNqYj0/aVlzGe93cNL/M40X0Z6JSpbas1x/HOy+5vCDIUpyvdZDdZ2OMlJsZ3YAZ3gmlyVYAl8LYDXnV3Qmg4iW2wnGt8BTJAe5iTKVBA2L59P7YdDkQ6fdUVA5PTcTxjJzHeUsCQ+Py0MVyNKbVXRgye4a3i/ffXYPWahUnpFmzNKvTKAz/hArVmzUZMWPfBtrsMJytehdUft+lpGhTGCCbExcXyodW8i4PJILg0NCesA5WDKBBQMNgE4ixyOrS0NHssjk7f6NAXbUcVbfv9+hm3OXIsOKBi1zzub7/9TdiuP4KfUP92zDmaUyHPabETeAYMj0T2Nea4s4I7ADjhatvNjeNGewsuHcBDNefo2hSruuvCgNU97RqddrUX12maNc6XxvpqsfTFpLZrxAVfA228UkjTyvdM42sx57se2h1uqzSXz+OzyQahV5BmZ/k1JP+Aj38BobW1hWcpokAOrtAEeuFXVJySBwv9/OfnAkQjs9HLcMKx5B3x1FOrpa+CL2dFgs23elEq9Re0c8hNMpAhmQOMi6p6uBvv4LxjDDw8qUEe1mG82rXfXW6nQCFtd83N3MNunBBi5HYhHmZE6VfzAHZC4k1HtfdLlZQmXeutcErfEJ4rEWigWq2+vlE61LQNYge8iWkBEHJloPmZ6JNOoCV4xte0L+YB7BkrMn6B2ZkeNPs1a8U2stmr9wAAQABJREFU1CHo1xg4XK1Dn+0B0+fkSgGvCbtqlsgJ3Sq/JUvWQhNXDV+WwRjXBYhi9Zy1pdSZGY89njFjgjRN8bnnjpRFiz5FefXSgTE3l2pT5kXT4Eaoso9KJ8YhQ8rc1/FhCHRO/Ne/lqAuNdh/Pw/bvAb5eOap4RsFv5whUphYtOgTOJhdjJw6JiAgg9AxL0O7/HwlA/kuiEKCzwcKJvkQL8DaaqVpDNlPnv1ONTW3xnFi4RboiooaPJ/efid6PjFy6/VvfvOxfqHdT9r3f/CDsxDHus9YJidUTqL6RGrMkAsKUnsTuzF+537Xzreh1pi7xbQXCZqHEl8yyKAtwByntQY8mIp94H3ujp25yqpd1uW73PVi+d7aCqtc7F3zxV+tZk8MYHuZ+o/lkIORAgJV0ldfPRKMi6sRq0kjVgoQNDHoJytqE5yxMnSeisPRorNtS5zaS6CMeRhr7ZKOgRQ6Pv54n9zyqB1IhA2Y2Nf/5pubsW/3qDFBF39vlU6ORUWp0gZFP44pU/qgTlr7uK/31Ve3SKfGWbPKwPDpQOSQjpbElG+bvOaacdDkaCpjtvG11zbLPbeBNoz7iOkoM3duf1kGy+G5DDzAiYEaoVDyaa52e8Y2x2ao2kcAv2EYkxuw+v4rtjtOBdOJg0ZhHybuTzDh9oWm7XOJs/aP5pdW7AR6DuN1N1aJX8Nz1hu3zBojQyL5DCUkxGO1vwcn7L0EwXsoBL4EeMMfkic1pqUlY7zMxbNLrRU1bLEQ4N/Ac7ECjmCXwlmYWgdvQT0GqtcjcvcCV4ZXXTUHzJ/yktUzL1BeEpyUz4SGcbU8d+GKK+ZKdbQ+ppEwWsJaexVtgfzoix/Zy8FXLD4j5sCLDukEzXL9r6JdUlDUtvyZc/O+ovk3+G4PDwviC/m4RZA7KgoLM5CFLkzESP7Kydh7UvUuJzy/uUsuAY7bGXgGTuJ5q8T7IMjH9Ppqtdiy5Zj8oh0G55A+HhSE6Idw4kQ9+Cv9HHQhzSl9MJggUCGIPHbuXGOnctHahAOgamU/ch4I1XPCsQOtibEwVtm8zREeNBzB8mbH/znhzLFdAjRyZD5WC32QJRmNVf5NWDmVyBd0cB/u229vM5xc2FYTNkSzf7dda/+bVVl6ihZ5aBC9+1euPIBzDz6E1+lgmf+uXZVy/+ygQTmQqP2bM/QcfX3SHugLV94jWQWq50haaIVXbjZWZaPFo4+uwFabD3HuQAM0BalS3VRefkge6sRzJRYuHMsOR7IWtGmg3NNL883vfvcRBIa+coCxjS++uF5qGOjwEogzGk0dPLuBq1o+9Kzjhx/uBO2Vu0w0wcHzwbJqX2DXgvGWCKyEro/div7Mwhbba7Cl6QUIdSthQ+ab4FJkn11yySwwogovAUGrNR29eIwxX4ZkRzijppAngFII4HkEixevkupvagh47/rrz5XnMBgZJLUD9IGorOThWiZ+gmtO7AzahvHQAnPiSDzzI3HNWjjADQSOz8nw2B4AwaIKntkHoLKm0NleGpkwKv8BlkAes4DaSB5C7Y+Rv1INzoPQuJWZW50puGuOetb8hhPbzJl9sOOJAqb/oKm7df7kHd8Fp+xEbGvMl2etvPvuTpw3UCTNDYyp7etfJ8eatXDjnV/n/6bD7pw5/WDu3ovF0xaYY4ZAYNVV/Q6Mzyrpy0Etwxln9EGFWqCNyZBCxa5dx+U9Hvina2q5k4yLsGACj8hesGC026zM/nLCvLhbOqNSQ8wtlm2CSDAleKZxOMyaT5MGIZRetpw0eAoUpcwFC0a4V7S+HnxtMC1YMFzu56XPwpVX+jrBzdfg9myw/190IEmFc88MuR+XJ2xRUOBOANadp1U1NDTKcwf85+U7Bgc/z2Ogf4DuxKfHplTJe1wBcieDMfAeTxCj1KgLd3Q0vO22ydKpk3t3f/jDxTI91XeUerm74dprR8mHXBs8LjDcfPGtb02TR0Y/8cRnWAFqW3LoPDpv3kCYLXKk1kaT4q2YvrFW2ncexFRcnIGtVZ/gAUqAoNCAXSgVMq/bbpsoj2EO7eDlTo/oMDGY0Qr0SgtUwtzum4fxWA5GehxqzEQcSjMQTGkCVLq/lxly9d8WnDg063zE34S4mp9K2z1f37SDki66aDqY+GAcfrVannkwceJgCHl9MXFPhAMZzVO6oNeCw7HOgvC+EmUYyzbm34oJKBPP1DWirExzQmx/HJDB5uEI4IVYZZ6AwMJ8Q/V8G+sVMd9DbmKgMEfhgEcpFxXtP40fBUa+anjDhqPSbMsVL7fh8R0vbX3qjQuFxlhJ3nd8//bVXy48s7FyiyXfWfP002vk4UWlpVnyFMNly3bBXFYpnRR5qFBHgr6m1czjnjkFds+FU36HyXMb/vvfLdAwr8Qisg/GewyE4nosGtdD41aBZ2MAhK1SFNSMeS1FtvGhhz7Cwu0T8HgeyZwqF09Ll+4AX+bL1jT/Bs+atf+LGoQnn/wUQnY/KaRQoHrkkeXSJHPddWMwN9A87ks4az9v77uco2z5IEDy97XQ9c7Tz2+eTc1VRCmYTwFe0jII8f01hgcJDZUqSa5QmZ5vsetchuFC3YaCqaVh24r2fgSaMUaOLAKTHoSTBpfIdmqmCj9N9nGbEz/PEqdvAE/FMraHEjhfskIHQu3QkbaHjYdz3H77FKwKtLPLtXT0/M2AmWUOVpfb5fHGPEOBNus5c/pCPV0K4aAYuFHY0PLiuvuGG8YiXSZ8KvZLfxB6FY8YUYi2D5aHL/HoZ76Ayjfj8Gwc63rPPbPAlDbggTki38XA90bwoZk3rz/6sK0dnimD+8UBDLInvQRXRISk4v71BozF7XLFd8MN58sVl6aejMVYaAbD3yXrWlpKZ0biTCe1WPRnmez30lL//gcyA6Z0c8+ZM0dj3AyFaY3CKLc+0r7JvHXhQEsxYkRfKcwOGMAVptXz3CJ9IMaP56nD5vRaLp7/2bZLLpmJi+xeludZpmfsqP8VUh8vYkeeQv7BA3S4ANEnRCJFwYG2ar4599JLh8IhlP1i1W9GXEP57LbIMnlaId+388Mfvi+4HVBf8Hz1qxNx5PZ7tnzKjDX0/k4+Sid4bRu5513ybt4jz/MO1ATwnuZPwLutcr7iSYk8/OiRRz7GVsKt8j796HgqJYUD3qfphPHJ6xYuHCe36dNUfd9978hD6OiPwL645Zbx8qwHvlVTf9686+H9m/3K/qJZmFpZtm///hPQxh+TTqbETcMwNH2l8RfzAsykQaAKzG4jvBvl+ZuHsDihphyDy3zw2RB/A7NVvj/gjjumuOMzTWgAQEaWgSvvtWuPoOMc8vxvdqjmjUrPWuxTkgf+CKyWuZIKJlCKdkqzgIYDMdDbpGHEk7+s7nHwfuUr49yFGtPxbPIU+HSMAkMfBmrGINWOc9beiGyMy+TaqoAnKZ53Xn/Eb5GTDry95T0KcdOn95Hf/fcR84PcjMFPKfnmm8dLZ0V61LK+ep5tbdTid/Q/mgcczQO4o/lGXnpuEWwGY3oeDp+H4Lh7HUxCo7GCicPKoREv21oHjdZGMKAcORG3qeIdYCTrINj2g6DHvrQ/yWrPu6bZi4+nYMBglZ5n3m8GQ82AIDgccXxpAzn+SIEEq/ICSR81cUPo4+XCpBcnD8+h/xFtF0bhgBMIbeo842XkyAJoEnPcIOn8JxyYuTBeUuTJhhMnlsC5+gj4RQvGbyocYPuhXrk4LfAtPtuSJwVXoxaM+RyccDjVvaPCOPZaYNbIl/e0F9gZx1mLfKkd040fX4SitXvkNdR407l76dKdcBQ+DhNuCxxzcyDIDpGa5WHDjAcU8dClHAgBZ8FHaCsOpzomeSxxnz27H56VXlKbwAUf22kn8JnkQmv69DIICVulmYh+ITQXz58/GEIMFwfGdtrJ1VccbTxgLW6qnElAwBhrsVLT+Mra/3UWHsiADDS+/xr4jqG9GfGxx5bL1yDzZSF0+uNLMOrr62H73S+lN+5v1U4h7EiHtNeu9u75KlO7TsmSpAXmY3wAjC3XyqCwor3ulfeMefN+oIHpKRjEgfS0xjz1a6H45HkNPUFAoCNuEkw0xWBOn0NT9DRWDJOlGrOqqgZHWK+gJgWC2YU4ibBY4q+h24JTM4vEvfdeK/0VPPvWGn9qpkhtwd8YcMEemorV03UoK5QMqq0GPeAb5nF/ONtFgQJCvDzy3HcK8nxdm9hZz6bv0rnwOXJEey393Ln94O8ySmqGtcOa4uUWeDop8qV3aWl2TWPe5bVCQMjF2J/hvmFsZyuEkHxJ2k3PezyRluR5j4s6Byb3vtC8lEC70SifEy6AtDoSU2M+TN2KdzbkgXKwFbkRbaTmJh5Cj6YB5wmIbcFu/zukMHLGGSXIs0E+93T61LTq3uW35R7MN/IUK/5qEhDAMEKjQAimll2QhpMbV8L//e9WMOMl0ibPNy5SbU8VPm1j1103GgMwUhmi3cGmgxtofD2d9qkzN6ou24Lxe9vVUH7jAIaWhJyumwft+OM77/yiFAqWLVsnTyTkRE5mU1yci9XNHGjm5rtXXDqjoM/MeGBD5mWc9K3hohlh2LA+YH61bq2PdTzPqy3YRUMVNbvBl/bAM4X6ZUIA/LXzn5e2UlmW//HQFj/U35w4QfcwTLXL3av8M6DRSMIEigNNKmvwQrD1ckLl2Qzp6UkoPJzYtNdWDTcuqHiQU1vgdV911J5FT0FHfz7bcrD7TRsn2lskuUhtC8Hn2ZaH5zfbJgYw4jAPYM+KhveXpuK/665pkPbi5FbHl18uhyTllOo6nlhFh7ubbprgXqWHvmPC296OlqYd5cwXWVFF6PtB6Wg55vSahCtnJvPNbneFR8BmQi16JXxEZsDJqQLmhQZoFhKwcs+DdqEXhAPK9t7j0fu3L2Bc0CIl4CUy10J12mRb46DlxjLsluOr/B59PbzyQZdD7cIEm4QdKtXQxu7GStwld6pxhU57Ot+uSOdJmlI1v6muFGaswPIlDFjF1a8Fk0ZPC3HOvfhqkyM7ll9bzu1/s6tBCKEKrP0KRcbdVulQwp0M5eXHYGo4Lr1E6ajIMxFoa9K8fhVT5MQwenQRnIpmCb4GNbwThTyljMvjHhJ44EoMxl8ZqJ+hzfoE3ZHxSME4FtqySe58qQ0IDxMyNKSnfu1x/HXMmCL4IMzGORdr5Wm5PDGXAj/9mKjev/TSYXJrYXj5SeQOP55v0LdvFnaS6Kbj8NTVSkNrMjFoTorhqVDklMI3J8bBUaWXJM966QzZ82rP/MVzGDJB3H/LCaUjk1RgCJKhWA3gwHKJttjEmCuqzlhVMW+eSaJCmBFw72IIc6ldWByfXTr3cTcbt1zybACaKqk25zHNdJ7UVNxKSGU3cUcED5XiNvLw8Vjp42VagJkEBNSoxw1gdoo24XUGI9Zy7z7/9UkrvC0ik7FSgYW3Fqo0hUCHEehhGgTipU389MIfMIA7KXRBgPMRv3OhoV/D1x4eLrposBsBYhI+XMBjTT5eVgKCe5ujSZjo4d2mmt+1CFDCNQ/grq2TKl0hEDACPVBA0DEKn8ZRLzE6P7sGJysBwSQxAFC3gBCd0Kpad0cEeBAQ29UTdjF0x/5TbTIgQCfw8C0LDQWrrwoB3whYbyO30iDAxOA7G3VHIdAVCFBAgOdzVKi1UEuH08lHi6TmgvCOl1iaoiJ5nJC/clBEch3D22WqtIhAALvITWPSSkDowSqwiOgnVQkLBHzt07WI2uWXqqtr68vLd53UTrVUAkJ4OyQOB/McPxXeMgMqTfHXgOBSkcOFgNNp42VNqEwPdVIMVzeocoJFIFqcFA8frnpv0aIVNXyNePi8kINFtbuli8fRuAf2RnCraMJVUmMEd1DPrBqVB2YTrtIg9MzREIWtht7ewss2EhuyZs2ORWvW/P7tSKxbD6lTJE/AlA8iuX49ZIioZnojYLUAsxIQlAbBGzn1OyIQsBrAEVExcyU66/ACc0nqSrQhoPhrtPVYz6mvadOC6QKwUDaynjMgoqql8EMwOdFEVQNUZRUCkr8qz1U1ECINAetdDJYCgtKARVrnqfrQ6TuKNAiqwxQCvhBw+yAoWdcXQOp61yCAc2ZMg9JKQKB8oGxkXdNHqtR2ETB72bYbXd1UCEQeAsrEEHl9omoEBKCgNckDpguIBxODOghBjZjIQ0BpECKvT1SNAkYAGgS8iEAFhUCEIWDFX60EBEi4SoMQYX2nqiO1X2YJVwGjEIgyBMBfHUpAiLJO6wnVhYBgy8QACVcJCD1hQERbG60GcLS1QdW3xyOgzkHo8UMgMgGw2kbuQ4OgBNzI7MKeXSv1sqae3f/dpPXKB6GbdGR3a4ZdE4OykXW3nu8W7ZHaLyuBtlu0TjWixyDAbeRqBdZjujt6Gup2UvQwM1gxXOWDED192qNqaiXh9igAVGO7AwIQDpSA0B06sru1wa6JwX1Qkocg0d2wUO2JQgSczhg1KKOw31SVPRBQm8Q84FA/IgUBJwLq4sFjLTUI6qzwSOkyVQ8jAg6HOgfBiIf6HpUIKA1tVHZbd6+0fNcNhQO/AoLysu3uYyFK26dMDFHacaraRgQUfzWiob5HDALuo+z9CwhwoomYSquKKAR0BKxO+tLvqU+FQJQgABODOoguSvqqR1XTvY3cr4CgDvLoUcMiehrrtpFFT4VVTRUCZgRowVUSghkXdaWLEcBJy7Z8EDB4lZdtF/eVKt4CASsvW4to6pJCIJIRoAJBqWgjuYd6aN3cGgQPv0SPH25cMIDV+O2hYySim618ECK6e1Tl7CGgDkqyh5OKFWYE3G9ztGNiUBqEMPeNKs4GAlY2MhvJVBSFQCQhoJwUI6k3VF1OI2DFX31oEJQK4TRq6kvEIGB10lfEVE5VRCFgDwFqEJSK1h5WKlYYEbC7iwE+NMpGFsZ+UUXZRMBqANtMqqIpBCIGAfBX5aQYMb2hKqIjYLUA86FBUAKuDpr6jBwEYmK0dz5HTo1UTRQCASPAXQxgsB6m3oAzUQkUAqFGwMrEEGtRiHsAW9xRlxQCXYiAW4NgJdR2Ya3MRRcWZg+bPHlomRAx5pvqSqciEAuOtmHD9qpNm/Yv79SCgs+c/FVpEILHT6XsJASsnBStBATuYlAqhE7qBJVtsAg4BAYwhYOIX3oNGlRy4Te+cfllcXEx6jkKtruDTOdwxIknnnhpUyQLCGqbY5Cdq5J1KgLaqxg8+aulgEARt1NrojJXCASFAE5CiAIBITc3vc+0acMnxsXx8VKPUlBdHXSiePH660sjWYhUGoSg+1Yl7EwE7GoQ1MtEOrMXVN5BIwAJNyoEBJhCWmJjY0RMDBUeSkAIusODSugUwL45qKThSUQBQQ2K8GCtSgkAAbtOijhHUQ3gAHBVUcOEgNPpigoBgXCoRyhMgyIKiwF3VT4IUdhv3b3K7pNqPbRvVg5f7n26HvG6OzaqfVGAgJWXbRRUW1VRIWBEgOsvpUEwIqK+RwQCbidwj4nfUkBQEm5E9JeqhBcCViowryjqp0Ig0hFwtbRQQFAygu+OigpfZN/Vj9I77gWYh0zg8cPdLiXh2u5gCltqMNuGq4MRlQahgwCq5JGAgOKv7faCSxw4cFI0NNCNxGMx224qdbPjCFjxV18CgrKR+cXbKaqrG8TevSfE8eP1iG0Fpd9MVIQAELBSgQWQXEVVCEQCAlQdKP5q2RMOAe2KeOSRjyVfVYsvS5A68aJ5l5jVNke1i8FvFzjFJ5/sE+++u10kJsaJU6caxVln9RdTp5YgZTQ/+7rEHpnqT6ttOH67SkVQCEQWAvTximYm0alo8k3Cb7+9Q1x22TBx4kQDzj5pFWlpCSgzMnlSp4IR5sytTqq1WvZSBRaiAWxXBW83XmcgppdNKLyJ90jmUF5+RCQlxYrhw0swiB3i979fIfiid1/xzTlE1hX0uaivb5IUqS5UygchssaMqk1wCJDBBpeyZ6SKjXWIZcv2iL/+dY347W8/Fu+8swMNt5qqogUP6zkk0mpvpaG11CCEZgA7RF1dk5QCExNjRWYmpUCr4BCVlXWwObVgNR4jsrKSEClcz48D9asXNTVNpopR2YKT8ER6erxISIhz16mtXv36ZYlNm1pERUUN1GKtYvXqg6KpqQVxrSA1ZR9hFxzSTPLQQx+JlJQ48a1vTUNfRN4hP1Y2sggDMsqq41sA1hrC8d425qOscZFaXYoHIVyA6c1sr5+ME1R78fS8OvNTr4t1PTBJYZHSLHbuPC7mzRssNm9uFr/5zXIxfnwvzA2JqJh1us6scUfypkaEHQ7tp2DbIjlYLcCsZjP3NseONkVTw//lL2vE6NGF4q67piJD786NwcS6X/zpT5/JSfaWWyZiECRbxOtoXXyld4pXX90s3nxzm2WZ8fExonfvdNS/SMyd209kZ2vCC1fab7yxVWRkJICSoUmgAIHWRe3CwCH9Kf7wh5UiJydJ3H77JLeAIJsVMf+sJNyIqVzUVcQhGhubIBzTf8YcYmOdGNcJEJLjcZPPbYjmNHNRPe1KiPirQP+1wLzZhD5ySsHeGkinqK1tQNxWHCDlgLqe/dk1gZOl5nwopPbVqhZkoYw3eXJvcd55A8XEiQU4OvszsWPHMQgJNOG2WCWL0GsO8fe/f466V4lrrx0l+vXLQT0j9zmC/GJaMfgQEMgRvCfzQPvAKbZurZQAVVScgoAwDRkY84wR69cfFg88sFi8//4uceON40RBQbpXnEDLDDS+U6xadVA899w6CAJpYuDA3NPl01nm+PE6KQgUFKSKlSv3i+9+9wxoQpKk1uGll8qhArtUDBvWS/zzn6sg9UbTwDXjxAeTGp/6ek3YMcfo+ivKByGUfUDhvBzC+esQbFtFc3Pb+OVCJzExQeClU2Lo0L5i1qwx8nt0MedQYhXSvEIkIMSAd+0VzzzzOXhQHoT6yaikkb+yzjFYgR8VTz75mZyYr7tuDCbZ3rjeFZNUDHy2tkpzAU2y118/WgwenG9ZF55CSg0txyEXLMnJcaKqioJsZK/AUUGv4BAvvlguPvhgN56hPmhTHu53BfZe1fLx00pDayUggGGEphVcUXOipUToGWLEli0V4gc/eE86pCxcOEbcccc0TNKpiNY1AE6fXoqHbCbarp3SyjrX1DTgIdwvHn30E6nloFR72WWjwDzjxIABOWLp0t0Qgo5LEwX9Ef73v23ikkuGejbV4xcHOG1pxIPt5HfjoOc13uM1nfBVBv2e/lv/1PPUf+uf7cX3zltLQxUYH0p7Qa87y2Hgb2PwVb4xTmDfrQZwYDmo2G0IxGBlcxATzP+w+kyEcFyMW9rY43NbV9cI099JMOgMsXjxKvG9710niospQOv93ZaT+hYYAhp/9eaJgeXB523z5mPiqadWizlz+oJ3TUEGxjzZv5XiwQcXi//+d4u46qqRIjeX/NUYJ9Ayg43vkALKY4+twFjaiUwcUkP5wAOF+O45nsh/aKrdteu4mDIlBou0aukEnpsbTs1ysO00p6upaZTm2+Zmz3aaY3b9FasFmJWAgBGEIdxpgQO3CsLBYqzOt4lrrhklvv3tmaKsLAMl2gFRn5jsVJD52WtKr15pYsaMUsT39EeYNq2PWLfuiPjXvzZgcO+SAgK9au+9d4bYtq1SpKbGiLFjB4q8PN3U4Ks8B/wVTony8gqprejfPxv5HsaraY9KVWFRUZqYNKkXTBaJ0tlxzZpDkgFwZUczx8SJvdzqQWP+TinErF9/VD5QVDempsaLvn2zxIgRuVDjUZ1oxNThzvsw8q6Utr6CghRp36NKOZCwaVMFym4UI0fmSQFw1arDYv/+amlrKynJgFkmXwpSnuUHUoI5rjIxmDHpyBUKAhxfpaUF4ic/uRVZaWNLExAa4GOzC4Lxa9CULcLqp0j8v/93LeIYx1NHSu+xaQFvaPgrFzE0MzQ1efdJDLYJHhc//OH74j//2SR3BNx553TRp49dHhvqvnGC1+2XmmJqO8gnyE+//vXJUkOgjzuWSmioQVixYj8WK3EYg4fAy/LB07Jx17udej113sX73gsmXtN5Znv39Lz0T6t5xpiXHk//9I6vlUltif3AuCSmJXnn2V75iN6hIMvWK3A6J0sBAX3EmnRC4MA9IX70o8Xi5Zc3iSuvHA6mcwaYTybKslekPjHZqdzAgVlywm0bIL5TaVoO1sGzHllZKaJ//yyZsLFR0y7gnQBSZTRmTJG066WkJGAFlgVm65nWszSn2LjxiPj+9xeLCy8cJIYMyRd//OOn4vDhWmmyyM5OliuBu++eKf797/XyAaqoqINvQD0eomRx9tn9xd13z4C6jV2mDZ5t26rAwD+F+eOAdAaljbG52SWdeaZMKRY33TQBzF9nCg7JSP7yl1XipZc2yoc0NTVO+k9QWLniimFoi/6gedbc/MsBu+CnEG6OgAmdKRYt2i4ffgoMZFgUlmbNKhO33TYZfhuhcyyycqIx101eScN/LpcO+rivLhsQyMpKxfgahysaU9NvnXnmRIy/WvHjH/8Nb0hcDkF+gdyx4x1Pj68+bSEAE4MX0LaS+Y7kqfVzioMHq9FnSyQPufjiwTCNzgK/sWv/tssDWB99IvNdN+2OQzz//AZx8mQDTMljxYcf7pVm3fff3wnhZSSiaHyV+VGLecst4yDMZEqeRs3Bt789Tfp7WY07CkfcUUahYvjwXOnwvnr1YWmSoGP8yJH5MF2TFQjw2hq52OP2STo88l5eXgruGPk250iBBVcVFoBVcvXPvIuKUiWGXMB5xmdspzh0qBr8sEKWT8f2IUNy0YbsADSyDnHs2CnkcwplJYNvpsBRswqL6eNyIUdTy9Chue75zFhflh+KIB0p7QkImCw9OUUoyoc97NChk+6BWy4uvXSIuOeeWXJiNQPuq0AHPFo/khoIXzGM1x98cLaYNq0Ml9rsq8b7xu8xMcSGk68n+MeP1wqu5jlwOekaBymdFLXfrVgtx+A7yVdwyAeE9iiq0EpKDkAyLoAjTgZODqsWnLjpJEiJkxM+bYXUauzbd0L8+c+rpD/H7NllmHj7oYBW+fD85CfvQ5jYKCfjCy8cIneKcEfIokXbxO9+9ykGd4P4xS/OgRDAejmhAdkufv7zZdLX4Prrx8JMki0HH/0rHn74E+koynb6Dw7x+eeHxXvv7ZQ+GSdP1kP70gcqzCT0cS0Y03rcXyH3L99xx1RgF5rhZKUCM9SVT+4A0FjQRND7oH+DVPCDgPa0c9x79lN6eqoYN26gTE1nRm33c3tj3E9B6jYRoALBk8mEDBenOHr0lPjpTz8Q//jHOvCWATANnQkfBfumod27j0Ol3+x3YuOYKSlJkxpL73Hj2RxOniekJiM/P0XMnz9ILnj+9rfP4Z+2Tlx00VA4WZLnaGOPb0C96qpRMl9O5GRHvhcZDml+eOCB97DbLFFqdR955BP4th2RvJY7soYPzxf33z9bTty//e1yTPrHcK9RamNHjixAmplYROkLVG0HxT//uV689tpmKWjRRM5Azezw4XniuuvGSo1r2zyhOeM//vinMJsfkwskLrwKC1PFDTeMBz+3K3A5scjaiXlgjbj66pEoLxHfVwO7Gjlf0LmUzv633jpRDBpkvz9l5W3+A+9nR3hMAJYahFALCFyZVlaeEj/72RI5cM89t7+4774z4aTSntrIqlUuqZ7XVvtW9z2vcYDoA8/zjvkX1V4ffrgLNzQTAx8AmgR4rbz8qNR2nHvuINw3Chva4DHnZn2FkigDzQoLFowAjcEEGw9VfSvKqpUCAoWB+++fJS6/fCQGcRwGczNW+ydhK14LZ5ddEAY4BzowOW/DRFwuJ/kHHpgjpcv4eNr6WiEUlWCQvSQdRL/4xWFi5sy+cvJ/6qlVUri6554ZcBqdibJjpXlg9uz+2Nr4hhQWbMkHqAF3eDBwe+fDD58H4akUtuwY1JcmkTTk/z9oSFZKE1Ko7IfuASzLdf9jB1NiGgOiYDAK1BdUBHoF5DHY8VsFCwQ0vkBWYBzPDsxkzejfrTLFhAmDwexostJXexYZRdaliO37UPNXDXYnVs114qGHPhTPPrsWB7f1BR85E4uQQBzjHDh34CO5crbTlZxcaYL15IneKZ3wzdoqTaDkRUVFmVhMxEArmy21jps2HcFKno+rxlfJfzIzNa0jV81aMI5Lz/w5gS9btlcurBISYsD/WsQFFwyWn6++uklQEOFCjtpY5s2FVF1dMwSWcslTKRzce+8sZEqZzSE1Gz/96Yf47oJ2Y7hcpFFzvHr1IYnr9u1VOPPmAqnhYBxqJR588H3pW0FtzeTJxfI17zQ/P/aYfiKkZ52tfznFnj0noanbKv32+EySj44bVwi+3CoP5XvyyVVS2/zooxeA13o/r9a5BnLVyseLpXiHkEu4lAQfeugD2SE8nri4OB3CAVVevjveu1L67xtvnADAjJO0fsf8WVTEAWZPWOfBHIcO/Q/xtTpRQKBKjGqeSZN6i69+dQIGC9X1wTNIDlAGPgBXXjlC5OfT8aZFbp/kpE4NAoUa3tMeklasylPkCY0UEHbvPoH4rJ9LvPLKZukDcNllQzGIeuMa6+WSJogpU/pIBvGnP60Sb721HQLCAAho1RAw9sjtRQsWDJerfS2NAyuMfAgkw6STJdsdSKDj5jnnDIKKj6laobKLg+AzXPzqVx9JrcfmzRUoqwz37PUZc7EODjIBIkihgJIahQESBYMyUCkoHcRQDzoPxL21YQ9HjhynBiNqQk1NHbRkFAT0ztd28KxduxnmqA8g/A3Damg+GKx+P7KbduJELR+I+yKwllxOrsEobgxl3bjqJl/91a8+hNPiKjF9egmEgzli1KgCFGOP/2n1ccmVMlfLdoJ/kyRX5I1SU8An96qrRsiJPC8vTVx88SDxy18uhwa03C0gGEvUx5n+abzn+Z1t59kzR4/WSn743e+eCX+FdEyyDlFWlg6TxqtyYj///EEwZ8+GtiAFK3IHBJUU8PT/wg9uC0y306V5lZrcX/96uXwXxO9+Nx/ajqFYpHERJcB7a6QARn76/PPrkNcsWZG3394md2ZwIv/e9+ZA8MmQgsjhww0QJD6STvieNfb9i9tVGZYv3ye++c3J2Bo5Afw0HvUVWBiWioULX5a7IrgbRdMkd5SnmurCCmiVcN+yEhAIiP+eMeXt+8LGjUflRHvuuQMh7e2WWwdnziyXElqgEwelKvvB/sNBOz9VOLr2jxMlnf6o3jpypFY8/fQaDG4nJts+KN5+vlZ1pbNQfj7tYnoHt0JFRnMFlr99syAcaIKDvICu0O9ROqaU29TUCBX+EXl74kTyQnaX3mX8dEg1GAUEOkIy0C7Jh4i2NNr32srm3VY4WhZC8uWqUc+H1/0H7v7QNCMYxTK0QoWYIrcp0ROZB55Mn84xp7fVHS2ID7fDD6W+6aAFoAkgqqG8A4WI670vhut3bW0dDZtRE3buPCi+853fo75a32tjvwFM8RCEuwx4yF+G8TQM9zs27sMFCPDvhbK+Ga7yAiiHAu7f8HzqD0sASX1HJZ969NHlcqfVsWN1MNtmC/pHBdNfXIDV1tp7VktLycPaGxNOrLz3ymPphwzJk2ZI8gGHwykdJx9/fCUmvI1wVpxiclb03VrzHQof9EWg2ZpmA23h45SmVy64iAl9rGjD1+7FCJpr4+NjpXaWQkxqaor4+OM9Ulus7VYbIYUlrX0OmfbLXx6NM3O2wn9uMybwaUgfJ/2vaDK++OIh0mSsL9T69EmXWzl5xg8PfgokkN9z2z+dvfXy58wZIOcemj94LICmSbbXT3bLtq1BAKMIbJbwUwPmdvPN49GBoyFtbYKk9R4cFZdgkkxBo8uQOrQNbasOn0d7TeFEe/fds9DytmeX6nra9N5+e4s88pP2uWeeudTQcW0lBfItOTkeD4ln3eRPZMI9v5zgjUG/p1/jgKM6kcFafe9yXxfy4eAgoxaHTpTcgcEtmZ7BBaEkQUrRntf9/6KfhDfGDkeM1IowtV5P/znZikFJgx20CnTK/UnzAjUJnBT0wBUaGLGoBnmCqcfovE9XcnLiuciewktUBDK63r1zPYRDqlUp+FVUHJcOihkZaVhRTca4tfc8dWXDk5ISKRX/BRTuvvfXbNbnM5y8GlINEx236VQ3aVKx+Oyz/XLSeuONTeL884eguMB4a1kZFw92A8eC7/FAvs8Jrbq6UZpos7J0DawD2o0SuWuMO8OWLNmJucHorGi3fC0eFzXx8U65wNPayzq1Sl5K7QKFB+6EMN5LSYmXZlIuujTncge2tB+SJtdx44ogHHAdos8FzK8FQleh3J5JXwOekZOb68Quiwrcg40T9zQsdDyapRmlpCQdPJAKTfuBvg7FxcZFnAuLtzgI6UUST25vbQ93+yV5x5Qzjccz4z1TMIXbxKA31DuTwH/TnHDrrVMAaBKcN8ZiZXJcOsVxq+Ojj54vVdz2BrIDqvVN0vPfTi3o69DmgNJ+CjqBaBKbPii0+NydMGhQjtziSAfDxYt3iC9/eTxutic5t1+W94RvjN3ePT0eHwh9pe9eVeu3Tn/q+ejxdL8NXtfvnY6ML3yYgwm6WswzLT1itXGml+95P7hfyFMXENYih3WgxaA+oAEguuGTRoD4dPHeMlDYA84O4DImagQEbnO8997rUGXXaazIVKuqarDdbB1Uwc9hW+xeaJ+yYM7ipBPYiuh0pmH6kp6efABFPRym4gIphg9FPQSE7xixDiQDq7gU5njw0IIF4+QC7Ac/eB/byN8Hv02FTbwESQLtL485wqpI97W28WKO5MTq/Lg0hZJHkPcvXboTfEYTWJzOWKkt5Q4oOlRedBF3UbHc9vI0l8Ir5F0UZvUTbfVYOp+jv5R2ry1v3vv/7Z0JmB1Vmfdvd2clG2QjG5A9kLAYNpEtgGETcQQRZZjREZUAwwduA6N8iAqijjMon8z4KKCCAgOCoghCAiQhhJCFhEASIPvaSWdPOnsv9/v/qu6h61bX7Vvdfe/t293v+zz/W1WnzvKe/3nPqVOnzjnXtVG+/6Q3IZBzJhjWl6Q3l4EXOD7nAF6qePFCoraBZoTC/+uA+rE15MJLFy9Z4WeMv+LCvXQ1/fmTKW1xQvuaVviRHYRcT6JhkggGQiegT58uiVtuOdNb7shQDWt177vvUn3fzzZc5WfriSfe8SaMZMpk0H306N7qIMSbCOk/QCG9PvFUNIbtpk/3JyyGOAwmWYDzpLe/gPvswH9J1NfH/28FlPHnMrAVK6MWCQ0fVnkTGTt1Cqrq++eh4I9sBO81fO5XkDSbUoCkV4EI6S8LajiOuHelGwlhxAgFxXcWsECYJhwjjBI+KmDbfvdeJ4UU/YdH414ZCqlcRFrslzFq1GDdqWtAnbcTThihYddV2o3v+cRTT72qDsJx7lbRHvVdmidii5R9HFJy3b7yAvO1r53lTagbMqSb9wLG8D0b0TGhjdVKcV/AXn55hT6pMjiXXc4992hvPlmU3VBN+b7PsnaqLRs6de5Mn94J+8Ls9S6mTVujN/EKveXXTVZ0vuIeaRm81iEiQEP3gt75Tx0kem6FNwcq9RlWjY/2oODlx4VJ72zUxdrY9pSQbgJ4XSz+mb/STiWZWlkRvt/c61T7mtaYF6SD4L+dusanNsGmSHfccZ63Fp/lJPTY7r77497Sk6gHdF3Gk95kOr57xxF/86V4Q2y+ccFNGj/edXV1lSodEwQ1Cy41V8C7aKGfjh07apJnX29N78KFm/Q9bXQ9TRYuZJQ14S3zIU8DBnTzdOeTycaNe8S132HzA5Yl8I/RZ6pkvr/6vywpSueMlRRVmpFLw6CZg94+DK7s64eP7+LpFlVARMEDYWMKb+n4mhAuSDkVRtRwtFjaTcmhP8pDPalfTix1ZAUDHYQFC5bLT/0OdFPSbM9hNMcrpyTyEuB/6qvxJj5/4xtnezPieTu/556pmiB+ibc3SZyy+93v5muovSJrO0Cb/otfXBoaCnel6i8/ZGQAf9dcw6ToqBfAUu1R0E0vXmu8vVmOPz74ldDFVahjSeplKuHtfRCVKqsfWALKJ1rmNtCRcJ9r9+7lq2aw2rMnTU3GuKLid27sJ1O/Lpbo5Q53f8llelqec7N/NMUOCWbCe8sKR0x7kVMDDieAoTIh8HvfO1+b6TyvndoWepPnvvnNs7MOM33qU2PUg6ofY5QL36XqEx3lU08YfZ/3/0ikbjiON+pt2w5oq9L39W2v3BtSYgOgOBUtOpXcuNIrhQf2QGCSz9VXnyj+mMBPA1+i9bibvb0QMN6LLx4hNzYv6q6JiAO9ysj+4Lfffo56w37/cP36Hd4wX1N6u/xp1fXXn6aJj0ekMleiNJZ7y5rYAZINQ3LFV1QPN5Vo8MA3ojVBBzuPw0Bau5AK4LutW0cnkD/YYdgpyp93235iMqAGtn5PLGbYKG9+bC7KWm9jtzvvPM+bmMymaLyAseSxbpO1qFhwSyaYSH7CCXxPzy5HH+3anLDf0sTcuau1n8tGbxO8O+6YkHohCT9WyuRnrTdrnzaJ7aIz73kQTiP313z7R3jp4VOI3x46XksTK1Zs9/aQoU3j0wHtJ20cy9bZVOn884N1gw2rdmkfm92NVpQlktXVzAEiPpd+Qunv8OLyX3x5tsV8EMbUQI8VEvS7CakweR1B8Ifto4dEmOx0/vnDNZJwjtbgT9bGPnO8SYtf+MJ4EZ85R/7wS7AgMvsNkpvJl9OR+QW33faiDKPOiOkwsFEFKwFYwXDzzadrMgq93Do/meKNcnftQtQQkbvn9AmGr3+vRg/+UZqENErfHFfp+/FkVexjZbSdvdGBZ59d7O3A9cUvnqQtmo9SVPwNdUctVRuvirvB23iJzg//J8FSztdeWyXO/d4wk3ZcekEdMp3T6NxxxxTvr1mZdMpSoYcemuv1tG+99SSVKZMYm8ZXOE0ZMMabZsBhP3bdeAYo71q91gbrC3bIf5G8+eY8dURneJFOnMjcG6O/8QynhxDfuakQ6dEGrmo16jNIf4R3ntqsF7zNdwYN6ultbewPhdc9dAKBvNMrrhj74bB5+F742u9w1M8KHRYmJ/LG+6lPnawVAEzJSbcvP65SfYIc7i3HZOM1Ngq68srjdavuJS2cZv6ua1KbvXXztnmeN2+92s5jlBx688+n1frEttgb3r/44pH6zMuqs1JvSSlLH/m/i89//iRvEjg61ugtlj0YGjtBkbCs+psxY7Wej3wt9dPfunW3Nw9ObaC37D1YVwmTC0l9Jkl7uEZ1EBhqrl/qjdbAX57Hsj2W1tWXpLeDFlttskHEo4++rQJYJMMenFqq0pAKmQ28fjoNuSS9Xb3QkaEj1rQGieehyZpgljZOmDDM+/vRpm9QwR4FHb2JOfX54J7/HwoMuQV14Nz9vwIPYP9e0utM3XXX+d6RdbN8ItC3b28nLxp8/rKZN3s2W/LD1KpDMUadoJ3eWtpHHlngGTOjDGxactttZ3rDYVRuEFeuvfZE9bi3qNMx19ufgjkR/CvkDTec4m313FBnL24azl+qh5tmwO6eHRvPgOsIsszxzjsfTouApVubNm1XY7Vaby7l+rQ3IXHFFRPkpyUa7zTVWv2F2tdG1LDM2XXlF/VSwXAx+5N8+9u7NVr4slZhzfLais997gS9GWdO3t9cLnOa6Xei4inV6OH2xF//+oHX3l199TgFwV9Ue17jjSywBwu7xzKSzEZGwZ0V09OLviL/vHRFseruRYUkTB13tRrt6KM2a7w+ybwh3l7RC9WpGhnt6c3bmjlztbe8kWWU7EPgc1jj/Tkfux/ygnnXXa94G0cx8rBwYbm3sR1/I8C/GtelE6VJuhtbQ7Mfw+rVu1O73dZoZ8cl3kgFe/Lka+VfaoQ27Q0gqoOQo73C6ZEdre9Un0h9/4oypqT3APvqV0/xerwYPG/BvkGlk5afqxo1fMd5ewb4lS1dR7+D0EUVq7u+pffUECtDG+l+4utVq550vwx81KoX3d+7x1yB9MpU4+kHj+n/dlkr9wHedtVM8GGOBMsf6UzwV6n02ocMoWPm9E16w3c33HCat9MiK0kYIWEjprFjj9SchiO0RetEb/TAX2rpwjWcQyZvXnjhsdpoZ503eoBv5h0w0uIPhcWLp+FU/Lvq4dI5sA5CHLKy+mGya2d9A+7tNV5PPTU1LQRvEyx/HDKkn5Yl/5MawvO8pZDptpkWxC5iMqCHRQ4qRVLtUUfvfwZ692Y+UViSGjUs8d5qmQ/ERmsPP/yWNyfJ3ysg6oFNHM1VrdTb64aHL7s5nnhithHXWu0hMMabxMiSwbVrd+iFpU9sPXgY8+IEF24Sn2MCG+YecwFSb8fulndNW0tb539KYHJgiV5sTpf/pEYEPvB2/mXOGf8vw3by/GEey/XZWM7Vg+OO66+OwQRtijRPoybvepsmsaMjy8kZDZ81a63CHvJGoONy+7GPDdGLZB+9NC9Iffqu8SZ7sj/D7beflfpviUzl92EWG32S4ih7B0EZaa6VSLmk96DwJ6mha6Yoa70RhoEDR3oZinpQezfy8pNUYffzkDl690xC/0x5yBy67o6/N8Fll/n5TI8r6RV6pntMQPInIRFbug4jRx6uCtXLe3tnRi0TZ/z/hUDvdL9cs3vjxInD1Dmo0YPBnzHrV6yk/ixqKAk0SugZ00kYMaKHt4UpgRmV8I0tnH6joo7yjPFaByGKmUa7VavBG6PtYG9VyOCblB8RneMePQ7TCFtvdfSO1DF3n4oarWobC6A6k4PWvcYban7ggUtTD4youubvb3LTTad7L2DUVf5IqH67kEuCa7wRYPRiQ7bDDsv2UsWcid4a4bjY25iucfrRSeqgfyK9wNvrwF9S6HjwR15/8pOJXgfY3x2y7h6rq/7zPy/yvvMH52bwInjrrWeqczNUKyu2ebszUhf434mxYwdopUXftLkBjHZcddU4vZT19j4NMIJK54BJ5KeffpRelPp788D8+Q3xip1OyfXXf1Sdq37evAfaajqBvHTxUtjQCFDTS9L7oyza1uwdhFzPss2utCs4tf7eS2L2EIXzgW51+hUu3bgp+SsPqCi+OF3dMRyP704v13/Wcp3Jbzhspmvvn8C8mb2+j1zEWT+t1BCYdRDqU9MEl1o1emzI4k/Mqh8By7pwde1FvMatfjzmEmbAH0Fofp3jAcw+L/4DI1N8tSrjnnrB8Jen5v8FLKkOQn+vk+DbTya96lhhnwQmR/Ja2nBe6sK4M8Jeeqm/iiucHvPV+HMoxL/nQvkdi8svHxN5b/DgbhotG6kR8KEaPaj1Xnbo6PAJ128rg3nyOyLnnnuMOtyD1VGp8fy59piJ4exq6T/WguGcLvWPjL7wGZrdGVmWzogGL31+nMQRL576MTfsEnsEwTfghiOzu8XGQFOMpilh/HwzyRHhraROgud1rrk6SxmwdRByRCid8ez9cesY5IjuD6NRnckJqZSdX37ZqoTfgfcVyOb3QzWbfJKqp40KHz8v9aNNf/in32/aPb8dYz5GN774eoJbpvbNd+cB7joGzm9dvlLRxD74ZcYGfnWSKf06H805k64YR5qBuNfOtHhz08NNi9Iu2hQDSW9vcr7L+Rsx5ddwHXWpEQT3Suuc7WgMtCoG9BZfmArTqlgpRmUbW0yN9Z+eZ/eyxQhCnQTP61zzcRZ3BIGJajnp4eYjExZnMTCQTEyadJr2Xzghp/scZMtZlAFnC2P3jYFiY0Ddg5pi08n0aWkGmETe1Xvx8ncVLlzHwOU86gWsgREEF8yOxkB9Bvz/mccdQy6MMWu4sN4QWH3NzMUYKG4GcvWJobhzado1joGaxHnnDfU2vBsyhAnBhe9D+p+rPpx05KmfqYNgIwiNK9126LswnYIgsXwzl9gnhiApdt7qGLAR2lZXZAVQOOlNJh0yhH+8LNxLVzBjUXO8Ihtbfw5CMKidGwMtz0DUEFjLa2UaGAONY8BGEBrHV/vyXfgXL8dv1Cdc6yA4duxY5Ax8+BfSabNsi1xpU88YqMeAdRDqUWIORcBAVAch8hODhjjsE0MRFJipkM5AaxlBkJ6lZWUsT6J6tdwbQTp77eWqE+vWWbBetOJ3EMwuiraA2qliUZ8YIjsI1sNtpxZS5NlOrWmOHPUqJtU3bdq24/nn39hQVlamp4A9CApZNslkh5Jly9ZvKmSajU1LG9GZUTSWNPOfdwai5nhZByHvtFsCuWIgtZFH0XcQtm/f/cSsWUve1Das9iDIVeHHjKe2trRkw4bN22N6bxFvNkmxRWi3RLMwEPsTg2/A1rZl4dNuF5iBqCGwAqsQK7klS9YuWbLk0fdjeTZP+WCgqBuvZLJEn3CLWsV8lInFWdQMRM/xyjCCEPnfnEWdPVOu7TPQWuYgqCRo/Qu/kLntm0CbyCGfcP3/HWgT2bFMtBEGokYQIodrC/9nTW2EYctGXhmIMuC8JmiRGwN5YYBJ4DaCkBdqLdImMxA1xytDB8FWMTSZZQuYNwZSk2hsmWPeGLaIC8EAL2D+vzGYKReCb0sjHgNR7at1EOJxZ76KgAEbQSiCQjAVms0Ac7yEZsdjERgDuWQgqn2N7CBo+MuGwHLJvMWVEwaiDDgnEVskxkABGfA7CAVM0JIyBmIwENW+RnYQbB+EGGyal4IzEPWNrOBKWILGQPMZsBGE5nNoMeSYAToIZWXp/3UT2UFIJGwZTo65t+hywECqh2sfbnPApUXRcgzU1PirGFpOA0vZGKjPgD8HoSytfY3sIPj7INSPwFyMgZZkIGoIrCX1sbSNgaYxYHMQmsabhconA7FHENw63XwqY3EbA41jIHojj8bFYb6NgZZnQPMTU6sYWl4X08AYcAxEfcLNMIKAAdssW0ecHYuDgdQynEibLQ4NTQtjIDsD9okhO0fmo/AMxB5B8FcxoGDa54jCa2wpGgMBBuwTQ4AMO23FDNgnhlZceG1WdV7A9AdzaQ/9yLexmpqEBhBsBKHNWkIrzViqg5BmwK00K6Z2O2bAPjG048Iv4qyrf6C/Si9L6xOkXdTpnqyx/kEdG3ZWHAzYJ4biKAfTonkM6BODvYA1j0ILnQcG/BGEZFqfIO3CpemZr/UQHB12LBIG7BNDkRSEqdEsBtS+2gtYsxi0wLlnIJmIPYJQW1tis2xzXwIWYzMZsE8MzSTQghcFA3xisD9rKoqiMCUCDNC+duwYY6MkbRVuHYQAcXZaHAywDCe801dxaGZaGAPxGbBl5PG5Mp+FY4BPDKWptzCXaqZPDLbM0TFkx6JhIDXLNtJmi0ZJU8QYyMJALe9f9gk3C0t2u9AM+J8YYowgWA+30EVj6cVhAAMOL8OJE878GAPFxUCJzUEorgIxbcRAagQh7QUs7cKxZN/IHBN2LCYGGP2yTwzFVCKmS1MY0AiCfcJtCnEWJq8MxB5B0PCXGXBei8IibwoDfg83fZ1uU+KxMMZASzKQTDIJ3PaZackysLTrM8ALWKw5CP4nBjPg+hSaS0syQA+3Y8dkWUvqYGkbA81loKbG+gfN5dDC556B1CeGtPY14ycG6+DmvgAsxuYxgAFrFgI/JsZAq2VAHQTrIbTa0mu7itO8Cml9grQLl3X7MxHHhB2LhwH+zZGtQNMNuHj0M02MgXgM6BODTVKMR5X5KiADjZikaH8mUsBysaRiMoABd+qkD2UmxkArZsCfpMgnXDPlVlyMbU51RhBKS5NpRhk5gsAqBvvE0ObKv9VniA6C7DLSZlt95iwD7YYBbw64TfFqN+XdWjJK+1pSUpp9DgKfGGwr0NZSrO1HT7+Hy4cGE2Og9TJQXW2rGFpv6bVdzf32Nf0FLLKxta2W264RtOacsQynQ4dEWg+3NefHdG+fDFj72j7LvdhzTfuqEYS0PuzBbWEAACXYSURBVEHahcuAP0nRxsAcH3YsDgaiJtEUh2amhTEQn4HqalvFEJ8t81koBmhfy8pi/d2zzUEoVKFYOvEZiBoCix/afBoDxcFAbS3/5mhiDBQXA7Sv3jqxgFqRIwj+EJiNIAR4stMiYCA1iSbSZotAPVPBGIjFQN0qhljezZMxUAAGkt5/McQaQaiutq2WC1AilkQjGfD3QUgfAmtkFObdGGhxBvxPDC2uhilgDKQxQPsaaw6CLXNM480uioSB1ByEtHW6RaKaqWEMxGaATwy2jDw2XeaxYAwwSTH2Kgb7xFCwcrGEYjFgcxBi0WSeipyBkhLvI0ORa2nqtTcG/BHakrRPuGkXjpC6ITB7WXOc2LHlGbA5CC1fBqZB8xmoraWHYC9gzWfSYsglA377GmsEocQ2Ssol8xZXThiIMuCcRGyRGAOFZUD/9mwdhMJSbqllY8BvXxs1gpAtSrtvDBSOAf8TQ7oBFy51S8kYyA0DtbX6O0cbQcgNmRZLzhigfY01B8GW4eSMc4sohwz4O32lD4HlMHqLyhgoCAN8YrARhIJQbYk0ggG/fU1/AYucg6BZtma/jSDWvBaCAdbp1l+GU4iULQ1jIMcM2AhCjgm16HLDQKxljjaCkBuyLZbcMsA3Mv0daWSnNrcpWWzGQP4YYJmjYGIMFBUD/ghCevsa2diyD4IZcFGVnSkjBvxJNOl/JmLEGAOtjQHmIPhDtLZKrLWVXVvW138BS29fIzsIaoptCKwtW0IrzZu/01f6N7JWmhVTu10zYO1ruy7+Is28/wk3xggCQ2A2CaFIS7Edq+WPINgkxXZsAm0i6zU1zPGyZY5tojDbUCaiRmgjRxCYg2DLcNpQybeRrNDD1SiCjcu2kfJsr9koKbFlju217Is536kRhLT2NbKDUFNTe/DQoRrlJc1vMefNdGsHDNBpralJVreDrFoW2zADVVU1Bw4etFmKbbiIW2XWaF81spXWvkZ2EPbsqd65e/fBVplJU7qtMlCS2L+/OrF3b3VlW82h5at9MLBvX82uysoDyqy9gLWPEm8duTxwoFptbO3uoLaRHYR9+w5uqqjYqy5u5O1geDs3BgrEQEli584DifLy3RUFStCSMQbyxcCWLVv26g3MOgj5ItjibSwDJYlduw4mKioq09rXTD2A9evX79rZ2CTMvzGQPwZKEuvW7U7u2XNgdf7SsJiNgYIwsHHdusotBUnJEjEGYjFQysuXULkq6D1TB2HL0qXbViYS9p0sSJadtyQDJYlly7bvqK5OyC5NjIFWzcCupUu3Lk0kmOdlYgwUAwMliaVLt+87eLBGdlknmToIVW+/vfnNysr98mnDYHV02VnLMVCTWLx48/tKP20IrOX0sZSNgSYzULtgQcXMrVv3KIJMTXCT47aAxkATGEiqfd2yXAHXBgNntM633ip/af78ci3WLQv6t3NjoAUYKE1s3lyZmDu3/BUlnjbLtgWUsSSNgWYzsHTp5imzZ2/QEIK1r80m0yJoJgMlid279yZmz17/miJKW52QsYNQWXlw5tSpq1c0M2ULbgzkgIGyxIwZaw4uW7blbzmIzKIwBlqcgcrK6vlTp6561z7jtnhRmALqpM6atb5m4cJNfxUZaTt4ZewgyOPOF19c/seNG5mr2JA349cYyC8DNdp67u9/XzF79+6qhflNyWI3BgrGwL4pU1Y8vnIlcxVtFKFgrFtCEQwkEy+8sPwdrWKYFb7Z0JM/uWTJ1keeeWbJNjPgMG12XTgGyjT0tTYxZcryB5Vm2vBX4XSwlIyBnDOQXL++8n+femrxBnsByzm3FmFsBsoS77xTrg7CsocVZG84WEMdhIQ+M6x48slFv1u3Tn0EG0UIc2fXBWBAu3omHn984Zy1a3c/V4DkLAljoGAMbN++f8PTTy/51QcfMO/WRhEKRrwllMbAH/6wcElFxbYn5Zj2eQFP2ayytrq66v1ksvTy888f3jsifFpCdmEM5JaBDurZvld9332zbtm9+9A7uY3bYjMGWpyBpLYO/6C6uvqiiRNHHMmf5ZgYA4VjoENi6tQVtT/+8evfqqg4MDsq3WwdBI0iVFdu2rR38/DhPT89evQAjTjY3ghRRJpbrhkoS2zcuCvx3e9Oe/Sttzber9ht9UKuKbb4WpyBvXur9mnX2nWDBvW4cty4QR2sfW3xImknCpQmtm/fp/Z16p/eeGPdvcp0VVTGs3YQFCi5bdu+FZs37z38jDMGf7RPn+44RcVlbsZAjhgoSVRX1yZ+8INp706ZsmaSdk/kG5eJMdAmGdix48AavYR1HD/+yHMHDuylPFr72iYLumgyVZKo1Xv+vfe+tnzy5A++snPnoU2ZVIvTQSBsdYcONXNXrtx1/FlnHT2qW7cucjIjzkSquTeHAYZZSxP33z9r82OPvf2lNWt2LpKDGVtzKLWwxc5ATWlpyfwVK7aPOOOMIeN69TrMTL7YS6zV6kf7WpZ48MG5Ox9++K0vL1++a15Dxha3g5DYtu3Q/oMHE2+sWrV9vIz4mMMO69xQvK2WPlO8JRnwOwe//vXcXf/93/MmabtvNkbSZjImxkDbZkB/RHZA8xFmLlu2ddxppw0e2bNnV2XY+sVtu9QLnTu/c/D73y/Ye999b9zy3nvbmPjd4Kfb2B0EsrJt297dyWTVDG3JOO6kkwYMP/zwbnK1OQlwY9JcBkq9Ya8HHpi99Ze/nHPjkiVbMN5DzY3VwhsDrYUBfcrdU11d9trixeUjx407ckzfvj2kurWvraX8iltPFiyWMnJQ+bOfzb5l0aLNrFrIumy8UR0ERZjcuHHfzk6dyl7Rtoz9Bw/uceLRR2txg/V0xYFJ0xnokNixY3/ipz99ffljjy366rvvVryouLIab9PTs5DGQHEysGVL5e7OnZNT33xzQ6/+/budMnx4XylqIwnFWVqtRasOiT17DiY0arDuoYfmT1q0qOJZac4fLWWVxnYQiDC5YUNlpYz31cmTV+yqqqo+eezY/l07duykW9bbzcq4eQgwQK+2LDFz5urED384/W9qFCfp/z/myNFGDgIs2Wn7YqC8fN/e7t1rX3v11bUb9+2rOmXcuP7dOne2T7rtywpykVu/fZ03b70mJE5/WUsaJ739dsXrivlA3Nib0kHw4l69eueBgwd3LVi/fv/0efPKB3bt2mHkcG2VUFKilTrW443Lfzv1h9mVJdat25nQfIO1998/+/sHDuz9/owZG9bpRoPfxNopYZbtdsbAxo0HNIJW+e7atfunzpu3oa9GbUcPH35ESWmpta/tzBSakF2/Y7Bp0+7Eww/P3/Tzn8/80d691f93xox1KxVZ5HLGTIkwa6G50uHii8f13LJl+ycmTBh64yWXjDzznHOOSXTtSo8XYY6ZDZF5VLTbH8zMn4CILSxfvlX/rbCsYvLkZY8dOFD10JIla9aUlyf2tVt6LOPGQGYGOlx22dE9Nm2qmXjmmUNuuuSSUeece+4xZd27s5IMsfbV56G9/9IpAMnE6tXbE/ofpa2TJy9/cufOgw8uWbJqeUVF/W2U4zCWiw6CS6fzNdeM7rFs2b4Jxx/f98rx4wddcNppgwaMHds30asXM3JR3qQ9MlBdfSihfecT2vDowNy5G96ZM6f82Y4dS57bsGH3ak14pWNg36bao2FYnhvDQKfPfnZc93Xrdpw9alS/K8aPH3jhqacOGjxuXL9E794si7T2tTFktiW/tbVVXvs6f/7GQ3Pnli/SJ4XnDh2qfbaqas+KmTO30r42eSVYLjsIjvNOEycO79qhQ8cBmnBzytChh39sxIjeJw0c2H3o4MHdD+/WrVN3oaSsLB9JOxXs2FIMJDVYdOBAdUI7xFVpVvaujRv3VGgvgw9Wrtw5R9t2zxo8uP+S6dM37isvL+c7mHUMWqqgLN3WykCnSy8d2aWsrPbIioqD44cM6XnmiBFHfGTQoJ5DBw3qfkT37l77Wtqhg7WvrbWAG9Kb9vXgwRq1r4eqtcHWrvLyygp9ql22fPnOufv2Vc8aM6b3uy+8UK7dOStoX5vcMXA65NOK6NJ2PO+8fh2PO25Ax4qK6p7686d+2rr58GSyupv+hKejU8KObYcB7SdfW1JSerBLl9LKHj26bOndu+s2dRIOvv/+oUPr16/n+5fNMWg7xW05aTkGaF87aAShk5acd6yqqu2xdeuBfvpk57Wv2omUWeMmbY6BkmRpaenBzp1LKvWZacvgwV227dq178DMmQeq9NLF5O6ctq/57CCEi4a0MGqODmE/dt02GGDSCWCEwEYJ2kaZWi6KmwFrX4u7fHKpnbWvuWTT4jIGjAFjwBgwBowBY8AYMAaMAWPAGDAGjAFjwBgwBowBY8AYMAaMAWPAGDAGjAFjwBgwBowBY6AZDByrsPzbiUl8Bpjo1BbkBGXCZnFnL0kmDZ8oNHlH1exJtAkf7Pp2fJvIiZ8Jyt3EGMjKQFtuGL6u3G8VWA8a648psrLVtj1cpez9g3CmsFiIvV+3/Bab3CmF3k0pZX/6lF467NXbR2ADFc6/K8wVEPsPDJ+H8O8AOdwizBLoROd0KZniK5QcroRuFiYI5GmJYJLOwGhd3ijAEW3HBqHdSlvuIHxCpTpWOF3oLywSTDIzMFy3VgpnCTw8lgutVa6V4gMFbIBKvlowSSR6iYR/E44TzhZmC18U+EvWTwtbhI2CSToDbFV4ncD/239O4MG6S2htQj76Ce8LXxJeEKxTKBICAj8sI6QNvFT4u9BupaWGmgrRMeHt6CXh58IlQiHSVDIfyjk6o4PSUkLZXib0j6EAD47zBR4UDKcWchMrGl30RIfGCDrSAaBCR8mTcvy9wKhIoYTPGjQqRxYqwUamw0ZVS4UVAh1BbAO33wrPCYXiqqfSoswp+5aSY5TwRUKcNhA/lcKvhcXChUKh5DgldG4TEiN/F4fC8ZnkJIFPry3xCW6o0oW7Yv6USbsNd7SDoFBSlG1HnMrRVILuUUCGeoPCvAB6ZDywcyXdFdGfBCpvsBNQo2t6+YB8Ftoo71aa/yy0lHxDCX9L4A06m3SVh8HCDiEpjBYKxRdv+n8QhgqNEcr3TOE3Qrix46FHue8WClnJscXfCuOFYpSPSamThQ0C5UtZHxIKzRUNMGU+SGgJoYPymDBKgINsAlf7BerSXqGQNnWt0vuh0FhB13uFfwoEHKJz8sLbMaMJw4RCyoVK7AEh2E4XKv3vKKFXhWkpTNbxZwI2EJSRuqDdoH3hM8wRQiGEThttx0cKkVjcNDrE9dgEf6coDIboZKhO/iy8IkwVciUXKyKGS2uFB4W5AsL15cJEYYFQLbQX4a3ja8JnBIw9m1TIw0+EPgKNUSEbbsqpKUK4/xBeF74k/Epw0lEn1wjkY5pQKKFRKWY5JOVoiHhA04k6SaBzBX/YDI1mIaSpZZ4r3eg4k3/aizgdBMqV0ZZrhXMFHnLFLtTp7wuMoL4sbBJof7emEPflQd7bhJyuXNAx/FEqN710/BfhWeEcYbuA3CecJvAZZqlQqM5MUbYd+ewgkGGX6cE6xzhnCN8U6N2GhUad4eKS8A1d02vfGeGO0ySBik5P8DrBdRD+U+c0fhgCBR0URhQuEhYLxwunCguEvwkYx4XCRuEpgbQR9GNY9AShUmAk5APByTCdXCHA6XNClZBJiH+VAC8YJ5X3GWGHEBZ6+pl6sfgPdsJc2K/r5C0BLlwD+FGdXyAQ5o8CFeZdYb2An4UC3NN4rxVcuH46h5/5wpUClewvApx+ThghvCG8KjjhTeVygbDLhb8KewQn6HGmUC7Au7MTnaZJL11NEN4U4J545wgvCQidnweEbwi/FxwXt+mcsu8ikL6THjohvtkC8Q0SJgvzhE8JJwlvC88L7iHWR+fcO1pYJ5AXGlkn8DhRwD5fEaqFKOkqR8od/dFhjLBIIL6oMIfLvZsQFsplixBlX8fK/ZMCfP5RGC6g6xIBoZx4cFD/pgudBWwF3aYJKwVkoHCigE18VoDHPwlrhGsEuHhNoD47OUYnpA1fHwjUAVceOvWGu+FqtYDtOH51miaExzbgCRviLY7yf1mIkr5yJB9hgYPNQjid/nL7sjBJOCQg5P9KgTo8S3hPGC+8KBDPduF64TDhdQE7cHKGTshnmfAJoVx4XEDvqwTCPyMEw5yj67MEynKG8IbgBJsnHGUwTSB8JjlZN2iXdgn/IGATfxFWCMT9gvAd4SvCPcJ+4RWBe1FCmZNH8gsfxEteSINyxw6In/JzcopOqM/4mStQTi5+xyt2OEdA3D3/qu53jE4HCauEzwjwCf/vCGHhHm0Lx7AckMO2sGPqerWO6O9kvk7mCSMFp99mnZMudrNScPoG2w7snPJ5SXhL+JRA27FAgHNnc9gm944S1grUCeqjE9rkjwu0Ha8KmcoaHl3bcZ7ORwuLhL8KUW2HnHMjPBDyJX9TxGT8XwWIwWhvFCjAKMFAHhM6hG6i45+F74XcuRwrULk+JkDar4RxAgbi8sbRFZhOPcGwMOZNAkZAwVwrUBl6ChUCDz8K4BaBivGoMFQgX0OEi4TrBAp2mDBZeFd4W0CXc4RHhO8KYZkuB+Kkoq0TLhF2CBjTXiEouN0tOEN190pS7k87h9QRQ14s3C48kXIjjgcF/NKYDRXOE74oYNANCdzCw/PCFuE4YVTqurOOlNfVApUaLk4Q/ihQcd4Tzhfg+9MC9vBl4V7h9wK8Ex9cTRDCjQHl+7owQ1gn4P8a4SfCfwnIYGGhQPrwisANwrHWO/N/RugwU3hFoOxpkM4WnhLgDW7+RbhJwBaOEmhQSHuOcLpwjHC5gNsnhN8I8LpLwIYvENDxJSEo/XVBA0Ie1wp7BPyRzreEsNwph6uEcLnDAbb6vhCUj+iCevaasFrABk8VHhAcVzr9kBvOw+LSmqgb1MUXhM3CeGGAAG+UdzeB8iT/bwrwgv83hGXCRQJ2/Flhj/B/hO8IjwhlwljhYwINJP6Dgs5ThGkCPOH/88Idwq+EsDwsB8I43d39bToh/e3OIXWE8x8L4wR0Iz/oRR6x22ECdjFQgNMqAcGWAOkE03pI16cIswVs4GoBHvYLPAzOFfAPp7jBw5cF0iK+zwn/T7hP6CrQ1h0hUJZHC6cJ5IXwYaEeXCXMEVYLJwpwe7GwVED+TbhWQEdspyG5Szf/UZguwNsnhZVCubBbIP6hwlkCOpGPO4VnhH0Cef+LcJtQKlA30P9JAfuBz+7CyUL4wXaz3L4tvC6sEcj7BOEKARsLSl9dwB88BQU+8Tsp6Jg6f1ZHyhKbcPIFnfxUGC+Qx4ZkpG7SdrwsbBKwkai240a5PyGgP1xgw5TP6QJulwvrhcsEbPdpYZcwRrhAwB6mCEE5Uhe0HW8L6wTsFjumzlG+rVIg58UUtup4RJZcdNT9IQIkhtE7Q9j/kPtsAcPoKUDedUI2wXgXCn8SOqVAQWGY6IkutwjLBYRC3SWMELhHmN8IrwnI94T3hM4C94cJVKjvC1EyVY7vCN0E/B8n7Bc+IYQFP2E+3HX3sGddnySg6+jUPbiZIWCM6E16XxVco6XTBuVU3aVhwXAJ21/YK9wvOO6olD8WEBoDyt1x0UfnVKhJArosEX4gEBe4SagVThDCQh64R8Pl0qIRoYK5vLuyjFNRjlE4eP6GQHxdhDUCDZyLn/MnBITGY6GAP3TluEi4V0BeFR4RCMv9Twvoe6EQFhq1HcJDgkvrn3SOnQwWwtJbDkdHgDpCWmF5UA4zBcf7BTpHl5uFxsoEBaDMPymQFnrQuP5QcLpjvzzskOeFpwXHA43nNoFGrIOwSuChQVz4uV0g/pFCWHiIJIVvCi4t0qUukrewYI9RPMFpWdizrn8hvBRwH69zbOJMAf0o45nCewK6Z5NfygM2dIRAeNqNaoF6wzXHSoG2A512ClcJ3ANfErYItF8fF/YIYwTukd95wlQhSu6WI3XR+T9M5x8IPxKcnKOT7QJlkk2oW9joMQLpXyGQF2cHR+l8l3C2QFrUw68Jrtwv0jn6DxeOFfYJ+CUu/DwnLBWieL1e7qSFvi7v03X+mBAWyhUuo8ode4gS2qWNAvUbvCKsE64USoRsMlQeDghfF8gLdrJWcHaP25+FxwXkv4QFAv7IT1dhsXCPgEwTfisQjvtwTX2dKISlnxywm18L+AdfEGg74pSrvDVNaFzzJYcU8QRhpUDB/EBoSGiANggUWhgYeFioUJ8XHkndgKxnheuEOPnCz+sCeoKtwiKBCoIu5QIFgZwlUPHIC/fwTyNDxaSinCJQkQ8K3F8t4J+CjxLcXxWo3PhfKpDncUJY8BPmw11TGcMySA7oRwONdBdGCjQyuJPe3wUarTIhm8ATfmcLhEUfOHpDID6wWeghIKcKdBAcF+jxlvBR4QhhiDBDIC7wmkBDElVmVFzuwbVLC//EM0BAagXsi0YtmxAflXymQHycU/HeTF3jRlxwhtC4UU74Q1eO6H660FmgEZwuEI77xIMdRvFK2jXCC4LLC/7J91AhLNj8ughQR0grLCfKAXt2vHO+RuggNFbQaZeATZMW5R8u861yo8zJ60cEly/8wyF16TShn9BfQB/ukXdscZ8AJ2HBjXvhMieevmHPuubhGsUT9Re+w4Kd4N/JWJ2Q14UC+lHGzwnkK45Qlwnr2g302SQsFogPnjjSlrj6jQ3jBjjn4TFMOF5A72UC9yhLeMtUhqT9vrBUwD+8zRGwBScVOqE8o7hzftyRdFYIawXiQ3fKfn7qmrpCGug7VOgjTBYoU/zPFbgPp9SNvcI7AvfwQ13KJKRN3okD/y7vcBa2E8oVv1HlvkXuUUJ5YpfYFfiz8LJwq4Cu2QQd9guUB3nBThpqO87S/VdS/sgPYWcIpwu0HaMFyt5xR1tA20FZRQl5pt3GP5glkKehQt4kk+HlIsEuimSaQAHQgEwRML6fC1EyUI43C2Q6KBCG0T8ddNT5hQIPmxuEfxYQKsEwgQrytpBNIDoo4etk6mZPHTF8d40zxg9/nYRuAgbrBH8YRCbB2DAGJzzk8H+YcwgcT9H51UIwbW7DyzMCD+6goA/GVJ1yhE8akqA+nGPgcQX9iBNBd65d/LghTj8aj2DeuAdX5A2bgDO4dEJDEI7L3eNIujRSTtCbtKhkTnAj7jhC2GB65IUKHCWUazBt/OwRyCM8g2BeiIf8ZBLSDnKDX/IXpfuVcj9DQL+gcP2AELQ37hNHWBd0pbyaIkEbIo7gtYuP/GBfpB3kCXfKHP7gCj9B+3P5lnOkUD6Ed0JYdAiWubv3VZ2MEEgzKOSdtoZjUIgjWEboR7kFbWKnrsPxySmjhO2H63B4yq27QDrBuocuuFE/uE8bFCzzYJnqVprACfkLpgVvgwK+nG7YahxBFxcf8XPt9OEa4Rre8BcsV9IC5IUyx2Zc+jpNs0+uw0Jeg2VD3mi7aOuIywnt8S0CfAUF/ZYJDwUdU+e0OyuEh1PX+AXPCd8VrhGyCfmFD4Sw8JDpmZGp7YAbbBAEbRyeiIt4o4S04rYdUeGb5JbPDgIZJUNkfJ5wg/AbYaXwVyEsGAGkYVhhidLzRnn6m3Cf4EilAGkUrhMwoGziwjl/4Wvnvk4nF7iL1HGwjhQwDeN2oZ/ghHiopEGjdvc4UtgDAw5UgiOEzQE3dwofmSp3FFfoQ3w02rwZ0RhR0Y4UnKA76aFHroURg6NDkcLFXAF7oBL0EZzAG5XJNUrO3R3Je193oSN645dG3EkvnSx3F004Zir3jYornJej5EY50ZhR/sFyR4/DhUy8Ul4DBCc9dUL+4Cws2DzlGBbipq6EZYccgjaFHkOETDYYDt+Ua3ijfmNn8BIUdJkjcI9GlXJzgi3SUGYqc9oBbGSVgHBOHMQVFviLqh8Hwx5T18QB70626oSREPRxYcbpPJNN6FaThLIvF3iwUjausYcX8otN0Y6gG+UOrwj2l4knbCFYN/APt0F7Il/kpaGOhm43SsjLllQI7N+VEw9s9N8kUKfJK0fXiSAvmXglL/CCvtQrhLqyU4iyYTgDYYmqM0E/4bjIx7Cgh0aeZ8oPHJDfoHBdIZA/0F9wQtsB4CFK4DzYhjs7CZZ1VLhmuUU9eJsVYSAwGQIIBv6UcKzwqDBRoNMQFCrPvwcdAudh0k7SvXOEi4QZAX+c/lK4R/ieQIXLJOgWbGg5D15T8Pih8aFDc4fwj8IfBQr2JgF3DG6K8B/CR4RlwmcEjC5TxeYhealAPpYIVwrEOVMIy1w5zA87pq7DvOC8VkBvHg4YIx2E6cINAnqSr38TwhVFTpHieAjeJH7cncAbbsiTwleF3wvo8nFhvPAdgY7KO8L1wusCYW4UOghRAn/4+bLwrgBvxL1IIG8I5UPFe5yLGEJ8Qd25DpY75+76CZ3/TEB/0j9ZuESAS/ijvL4oYBM8XLAJ9IkS8kKYLwivCDR85GujsFwIy9Ny+FPYMXUdVXZ/171vCQ8Jm4Wbha5ClI3IuUGJU+bwBsgX+Z8koDP5uVwYLfxNoA5+IHAfO+6SOidssBx06QnxYQ9fEeAF/eHpLYG4wkJ9j4oHf9Vhz7pGl4kBd+oXAl8PC9ThS4V9QhwJ2gv+M3HXUfcWCuuFbwrUBzjgHHteI7wpDBQ+KzwrnChcJHA/SqrkOEr4jPCcMEa4QPi64GSYTmgDNjmHBo7kBZ2cNJQX8jFPwOaok+hyi7BVWCD0FIgPe/+VgB5XCVG2K2evnPvp+M/C7wQehrSL2HNYdsvh+2HH1DX2EyXkpY9wbOom+TxDuEK4I+WW7UAY4nHCNXl0wnmH1AXt0X3CLwTKj7bjYuF6AQ7eEL4oUHdo1/5V6CRkEuoB/l8VdglfEcoF6kjexGUmHwnQSGGYTsjgPcII4SfC1UKw90PBRlVoOdcTKvAsAZKJNyh/1sWtwjnCX4I3QudUGAzNyXadBPmggaAAcFsi3Ci4ytBD528L3xWQx4RzhacE8r1QoIIfFKIEw3pduE0YJAwRMNJ3hbA0hhfCrhHWCxMEGlXk2wKG+qRAnp4RuB80bl1GCnnYILiKjT7EAT9OtugE/pCfC4MFDB9D7iWQzxkC8g3h18IUoVJ4RaBBiRIq406B9B4XDhc6C9cLzlZG67yPAJ/ZhDyQFyqkkyg7OCx1k3IdJfxGQA/y8jOBByFC+f9OmCxwf6rwpgBHYSEvcElj8aBAXtAbu9ojhKVWDiCu/I88DhMeEiqEPwtLhI5CY4V6u0Fw6XOkDPYLTrBz8ozcK/QXSJM6xcPhFgH7g4tbBR7kLwuuzIfrPErgaYeAPWGv8ISdXidE8ersUrdjyavydZMwUNgokK8vC98RLhEWCI8Knxei0pNzmmzTleOJG/sE4nRhnc1xhL8vCPcJLwm0A7xJfknAnt8WvifcLfDAoAweF44SooSyfUc4X8D/IIG6/b+Ck4k6wQ98ZhPqK7bjxNmB45g8kTfyQZ6vF34hvCjgh7Ijf5QxNk1d/3fhKoH0qTdnCZRnWOBipTBSeF44UpgrEH+UuPofdS/KDS4/KTwbuEl+KXdsM5uQP+I4FPAY1XbQPiF/EEYLvxWoJ72E/xIoH+ROgXu0g9yfKswW4DUs8OraDur34UIf4UYB+2mV0l1ag7BgCH0FjLup0lMBuzUQmPuukc/kDT+uMPGD/6C+6EehUjgIRs31ccJRAvkICtfDBQyc865CJh1m6t5dAukfK1CxoyqNnJskVEw6KR1SoY/QkQac/JEv+KdynClkE+LAIB0PHOEhWH7ES36dkP8hAlyRdjBvhKfsyPeA1D3id7rq9EMZozP05MjbBfGRltNFp16lo5IF08A9StArnFYPuXUJeCYfQTsgDHqOFdAhmA56UIboR37xi10FudGlJ4TdIpwnoAPxwU0wL7pssqAzemJz5Ac9VwvXCY2VqDJH52C+4C1c5tQLygj7CPOEf8ocO+Qe8cFXWMbLgTInLh4SxIe95IonyosH5tcEBB3oLKAfZcf1bcJCIY6gW9Be4Ij8OyG+YF6dzYyS+wgBroN5gxvaA2yKcuQ+ekXJT+TIg4U0RgrEx7kT9FgjfNY5ZDmSHjw4yWYH6I0f0iU/cBvOC+VNucMRuqFT0I8uPblJv+8J+BkmEF8wL7psllBO1LfeKXBOWQXtVJcZBV2C5YhHuIIzJ9S9oC0QJpdtx7mKDx1y3XYoSpNcMRBl3MG4s93H75vCPalAcfynvMY+UAkXCZNSIWgMlwqnCVQ+eszLBYwtn9JQ3hq653SiYdkrHJ9yCIfh4bFBOCN1P5+HcNrBtBq65/zRQdghXJhyiBPGhY1zvEyeNgqXCEOF2wUetDS0hZSG8tXQPafjyTqhzIelHOKEcWHjHq+Qx1UCjXdXYY7w3wJpflRYI9wt5FOy5SvbfXT7qfB6Ssko/+RhmsCDMN8Slb5Ls6F7zs/NOlkmOL/u6O635mNDeWnonsuzazs+nnKIE8aFbdaR3p9J4xhIZvGe7T7BeahtT8UTx3/Ka+wDDwY6B/cKLwi/EY4W/kdAtgjXCDu5yKM0lLeG7jmVDulklcARCYah0eNN735htpBvCaYdTquhe85vjU5WC/tTDnHCpLzGOkyWr58L3xd4c+Ehe61Ao1tIaShfDd1zOjKUukqoTjnECePCxj0+K49nC4y0/btwq3CX8EeBcuLI23k+JVu+st1Ht21CeUrJsH861ecJXxGqhHxLOP1geg3dc/5os9a5Cx3jhAl4L+rThvLS0D2XqXy3HS4dOxYJA7y1dCqALt2URudUOvQ6SZdhsYL1QFNpN/XA8B9DdlHDgLgx9Npa8oKelAcP73wJaWBX8AI/rYUbqfqhuDLPt+7EHxzu5toNGec77Q8z28wTypo6HSUMfWe6F+W/pd3o8DNEb1KfAewx321H/VTNxRgwBowBY8AYMAaMAWPAGDAGjAFjwBgwBoyBWAz8f/wkusXxvQBfAAAAAElFTkSuQmCC;" vertex="1" parent="1">
          <mxGeometry x="390" y="330" width="520" height="285" as="geometry" />
        </mxCell>
        <mxCell id="-thazCZJoOSdDLhHE3hT-2" value="小红" style="rounded=1;whiteSpace=wrap;html=1;arcSize=13;fillColor=#f8cecc;strokeColor=#b85450;" vertex="1" parent="1">
          <mxGeometry x="450" y="330" width="60" height="30" as="geometry" />
        </mxCell>
        <mxCell id="-thazCZJoOSdDLhHE3hT-5" value="小明" style="rounded=1;whiteSpace=wrap;html=1;arcSize=13;fillColor=#f8cecc;strokeColor=#b85450;" vertex="1" parent="1">
          <mxGeometry x="790" y="330" width="60" height="30" as="geometry" />
        </mxCell>
      </root>
    </mxGraphModel>
  </diagram>
</mxfile>
